<svg xmlns="http://www.w3.org/2000/svg" xmlns:xlink="http://www.w3.org/1999/xlink" xmlns:inkscape="http://www.inkscape.org/namespaces/inkscape" version="1.1" width="330" height="105" viewBox="0 0 330 105">
<path transform="matrix(.1,0,0,-.1,0,105)" d="M350.305 697.715C347.371 704.926 351.812 714.613 351.812 714.613 357.105 716.266 366.965 715.227 369.934 708.363 373.137 700.922 369.934 694.535 361.391 689.414 361.391 689.414 355.992 691.312 350.305 697.715" fill="#50565b" fill-rule="evenodd"/>
<path transform="matrix(.1,0,0,-.1,0,105)" d="M603.27 265.977 551.031 224.348 550.754 653.988H603.27V265.977" fill="#50565b" fill-rule="evenodd"/>
<path transform="matrix(.1,0,0,-.1,0,105)" d="M636.926 303.445 637.074 653.988H679.664L680.082 386.523C671.875 361.211 658.453 333.652 636.926 303.445" fill="#50565b" fill-rule="evenodd"/>
<path transform="matrix(.1,0,0,-.1,0,105)" d="M465.145 262.02 518.086 220.371V653.98H465.145V262.02" fill="#50565b" fill-rule="evenodd"/>
<path transform="matrix(.1,0,0,-.1,0,105)" d="M435.52 291.309 435.211 653.984H388.219V368.508C390 349.238 424.438 300.43 435.52 291.309" fill="#50565b" fill-rule="evenodd"/>
<path transform="matrix(.1,0,0,-.1,0,105)" d="M531.934 165.273C334.125 165.273 173.215 326.191 173.215 523.984 173.215 721.762 334.125 882.672 531.934 882.672 729.711 882.672 890.625 721.762 890.625 523.984 890.625 326.191 729.711 165.273 531.934 165.273V152.578C736.723 152.578 903.324 319.199 903.324 523.984 903.324 728.773 736.723 895.371 531.934 895.371 327.125 895.371 160.512 728.773 160.512 523.984 160.512 319.199 327.125 152.578 531.934 152.578V165.273" fill="#50565b"/>
<path transform="matrix(.1,0,0,-.1,0,105)" d="M531.934 24.4102C256.438 24.4102 32.3164 248.516 32.3164 523.984 32.3164 799.434 256.438 1023.54 531.934 1023.54 807.402 1023.54 1031.51 799.434 1031.51 523.984 1031.51 248.516 807.402 24.4102 531.934 24.4102V7.96875C816.465 7.96875 1047.95 239.453 1047.95 523.984 1047.95 808.508 816.465 1039.98 531.934 1039.98 247.371 1039.98 15.8945 808.508 15.8945 523.984 15.8945 239.453 247.371 7.96875 531.934 7.96875V24.4102" fill="#50565b"/>
<path transform="matrix(.1,0,0,-.1,0,105)" d="M106.523 377.715C117.793 366.711 123.5 359.121 129.664 344.641 135.18 331.738 136.352 323.43 137.125 309.414L162.652 320.73C153.215 331.191 147.934 337.656 142.211 350.566 135.902 364.863 133.605 373.887 132.594 389.453L106.523 377.715" fill="#50565b" fill-rule="evenodd"/>
<path transform="matrix(.1,0,0,-.1,0,105)" d="M104.883 321.191C115.77 332.527 123.422 338.301 137.953 344.336 150.914 349.727 159.164 350.898 173.176 351.777L161.887 377.305C151.453 367.82 144.883 362.676 132.031 356.895 117.793 350.469 108.723 348.398 93.1367 347.266L104.883 321.191" fill="#50565b" fill-rule="evenodd"/>
<path transform="matrix(.1,0,0,-.1,0,105)" d="M956.25 377.715C945.027 366.68 939.246 359.121 933.121 344.641 927.59 331.711 926.402 323.43 925.66 309.414L900.133 320.73C909.449 331.277 914.941 337.617 920.551 350.566 926.801 364.895 929.188 373.887 930.191 389.453L956.25 377.715" fill="#50565b" fill-rule="evenodd"/>
<path transform="matrix(.1,0,0,-.1,0,105)" d="M957.898 321.191C946.949 332.5 939.391 338.328 924.828 344.336 911.852 349.688 903.617 350.957 889.609 351.777L900.898 377.305C911.301 367.793 917.898 362.715 930.754 356.895 944.961 350.422 954.059 348.438 969.648 347.266L957.898 321.191" fill="#50565b" fill-rule="evenodd"/>
<path transform="matrix(.1,0,0,-.1,0,105)" d="M330.574 166.348C337.285 170.02 340.559 166.688 342.234 168.848 343.484 170.438 342.035 171.133 340.156 172.578 337.656 174.531 334.906 176.094 332.398 178.027 329.836 180.051 327.645 182.363 325.055 184.375 324.016 185.195 321.645 187.5 320.254 185.742 317.695 182.441 329.355 178.906 322.496 170.098 321.34 168.613 318.605 165.496 311.047 161.316L276.695 142.402C275.898 141.953 274.535 140.93 273.992 141.328 273.457 141.758 274.027 143.398 274.277 144.277L286.246 183.379C288.496 190.828 290.777 196.113 292.953 198.926 296.035 202.852 300.266 197.285 302.227 199.824 303.477 201.379 302.965 201.66 300.129 203.879 298.695 204.961 295.824 206.602 290.145 211.035 287.125 213.406 284.402 216.152 281.477 218.438 280.137 219.453 277.98 222.363 276.207 220.137 275.707 219.453 276.414 218.008 276.617 217.695 279.516 213.945 279.965 211.934 278.637 207.117L258.219 135.438C256.77 130.273 256.902 128.633 257.828 127.938 258.785 127.168 259.668 127.383 262.535 129.043L330.574 166.348" fill="#50565b" fill-rule="evenodd"/>
<path transform="matrix(.1,0,0,-.1,0,105)" d="M419.883 129.387C422.074 138.137 428.785 131.941 429.863 136.328 430.203 137.688 429.691 137.969 427.383 138.535 425.652 138.965 424.203 138.828 414.934 141.152 410.754 142.168 404.531 144.219 400.172 145.305 397.871 145.879 396.453 145.273 396.172 144.219 395.172 140.195 408.312 140.242 405.875 130.469L392.305 76.0156C388.805 61.9727 382.043 70.2734 380.691 64.9609 380.531 64.2773 381.047 63.5352 382.473 63.1641 388.48 61.6797 393.184 61.0078 396.594 60.1562 402.062 58.7891 408.5 56.6797 425.102 52.5195 434.07 50.3125 442.883 58.1367 445.121 67.1094 445.664 69.3086 444.996 69.8438 444.562 69.9609 440.414 70.9844 438.164 55.5469 411.062 62.2852 403.191 64.2383 404.645 68.2812 406.43 75.4297L419.883 129.387" fill="#50565b" fill-rule="evenodd"/>
<path transform="matrix(.1,0,0,-.1,0,105)" d="M485.215 115.535C485.797 123.711 486.246 123.789 499.836 122.832 521.531 121.34 511.809 108.086 517.066 107.754 519.652 107.551 519.375 111.504 519.375 113.035L519.734 124.773C519.824 125.859 519.117 127.07 517.668 127.195 507.766 127.871 499.977 127.961 491.988 128.496 474.785 129.727 466.734 130.742 462.125 131.094 460.535 131.172 459.574 130.293 459.516 129.246 459.176 124.492 472.133 127.402 471.395 116.758L467.523 61.3789C466.516 46.9492 458.438 53.9258 458.035 48.5 457.973 47.7891 458.633 47.1289 460.082 47.0508 466.273 46.6211 471.023 46.7383 474.508 46.5 480.129 46.1094 486.836 45.1719 503.926 43.9688 513.145 43.3203 520.453 52.5586 521.105 61.7969 521.254 64.0625 520.473 64.4531 520.043 64.4727 515.758 64.7852 516.266 49.1797 488.375 51.1133 480.305 51.6797 481.035 55.918 481.555 63.2422L482.605 78.4062C483.086 85.2539 482.742 86.7109 487.926 86.3672L496.227 85.7617C507.914 84.9414 503.895 72.6367 507.484 72.3828 510.188 72.1797 509.812 76.5039 509.812 78.0352L510.492 99.1602C510.613 102.344 509.355 102.207 508.562 102.258 506.312 102.422 505.203 91.543 495.535 92.2188L488.457 92.7344C483.621 93.0664 483.688 93.8945 484.055 99.0039L485.215 115.535" fill="#50565b" fill-rule="evenodd"/>
<path transform="matrix(.1,0,0,-.1,0,105)" d="M545.32 58.5938C546.371 46.5586 535.398 47.7305 535.828 43.0117 535.992 40.9883 538.184 41.7891 539.434 41.8906 542.449 42.1484 545.438 42.8906 549.055 43.1992 552.973 43.5508 556.801 43.3984 562.324 43.8906 563.785 44 566.594 44.1406 566.441 45.7891 565.961 51.3398 552.281 42.0703 550.32 64.7656L546.793 104.922C546.715 105.984 546.852 106.836 547.543 106.895 548.082 106.953 548.824 106.406 549.684 105.527L609.07 48.8086C609.91 47.9297 610.531 47.2695 612.113 47.3984 613.461 47.5312 613.395 48.5 613.164 51.0742L607.363 117.363C606.285 129.785 616.062 127.754 615.754 131.316 615.723 131.66 615.602 132.852 613.461 132.676 612.48 132.566 608.586 131.777 601.504 131.152 593.77 130.469 590.473 130.645 588.684 130.488 587.203 130.352 586.973 129.16 587.062 128.328 587.402 124.434 600.914 127.754 601.84 117.02L605.281 77.6758C605.531 74.707 605.465 73.2617 604.77 73.2031 604.094 73.1445 602.613 74.4531 601.02 75.957L551.352 124.133C549.133 126.199 550.41 127.141 546.793 126.824 540.863 126.309 537.992 125.574 535.062 125.312 532.922 125.145 530.883 125.43 528.738 125.234 527.371 125.117 526.879 124.133 527.004 123.066 527.488 117.422 539.402 126.199 541.363 103.484L545.32 58.5938" fill="#50565b" fill-rule="evenodd"/>
<path transform="matrix(.1,0,0,-.1,0,105)" d="M684.695 149.453C684.496 150.027 683.727 149.902 683.199 149.734 681.676 149.285 682.703 145.496 680.668 144.883 677.445 143.887 667.008 148.281 654 144.277 626.836 135.977 623.398 107.52 629.23 88.4766 631.957 79.5117 645.688 51.9531 677.246 61.6211 700.227 68.6328 706.395 89.2695 704.984 93.7891 704.797 94.4727 703.656 94.7266 703.113 94.5781 700.309 93.6914 697.516 76.6016 680.824 71.5234 660.25 65.2148 644.758 85.0586 639.859 101.035 635.227 116.223 639.086 134.785 654.926 139.617 667.438 143.43 679.945 136.504 688.648 127.219 689.879 125.996 691.348 123.84 693.059 124.355 694.906 124.922 693.676 127.383 693.238 128.496L684.695 149.453" fill="#50565b" fill-rule="evenodd"/>
<path transform="matrix(.1,0,0,-.1,0,105)" d="M717.168 156.562C711.879 166.516 721.348 166.738 719.449 170.293 718.762 171.555 718.168 171.492 715.176 169.902 709.516 166.887 706.156 164.59 702.578 162.637 699.078 160.801 694.988 159.18 691.098 157.109 690.219 156.621 687.539 155.637 688.508 153.848 690.438 150.176 700.137 159.062 705.199 149.543L731.93 99.2773C737.207 89.3164 728.598 88.2422 730.559 84.5898 730.84 84.0625 731.406 83.4375 732.328 83.9062 734.898 85.2812 738.949 87.9883 743.238 90.2656 751.008 94.3867 754.887 95.918 758.59 97.8828 760.867 99.1016 761.547 99.9805 760.93 101.152 759.16 104.504 750.574 93.7695 743.715 106.609L717.168 156.562" fill="#50565b" fill-rule="evenodd"/>
<path transform="matrix(.1,0,0,-.1,0,105)" d="M72.1758 572.156C65.4492 575.398 66.4336 579.238 63.707 579.508 61.6914 579.719 61.9297 578.359 61.7188 576.367 61.4688 573.695 61.6602 570.984 61.4062 568.352 61.1289 565.586 60.375 562.988 60.0977 560.25 59.9883 559.105 59.3594 556.379 61.6055 556.148 65.7578 555.746 62.3203 565.758 73.4688 564.656 75.3555 564.449 79.4883 563.855 87.168 560.219L121.891 543.617C122.711 543.238 124.324 542.711 124.27 542.141 124.211 541.559 122.512 541.262 121.625 541.059L82.2461 532.551C74.7656 530.906 69.0781 530.23 65.4961 530.574 60.5547 531.078 62.8867 536.586 59.6992 536.91 57.6836 537.109 57.75 536.617 57.418 533.598 57.2891 532.07 57.4805 529.285 56.8906 523.199 56.5469 519.988 55.7461 516.797 55.4414 513.672 55.2969 512.258 54.0664 509.414 56.918 509.133 57.75 509.043 58.5703 510.215 58.6953 510.48 60.2969 514.238 61.7188 515.438 66.5273 516.602L137.855 533.312C143.008 534.516 144.285 535.336 144.379 536.301 144.477 537.328 143.84 537.867 140.852 539.238L72.1758 572.156" fill="#50565b" fill-rule="evenodd"/>
<path transform="matrix(.1,0,0,-.1,0,105)" d="M128.594 579.746C140.367 577.035 136.246 568.637 140.875 567.578 142.844 567.125 142.664 569.105 142.926 570.117 143.496 572.617 143.605 575.215 144.281 578.184 145.035 581.418 146.227 584.441 147.273 588.977 147.555 590.188 148.184 592.457 146.594 592.836 141.133 594.098 146.285 580.445 124.07 585.566L84.7773 594.648C83.7539 594.879 82.9844 595.242 83.0977 595.816 83.2148 596.266 83.9258 596.695 85.0156 597.113L155.352 627.715C156.426 628.152 157.227 628.457 157.543 629.746 157.793 630.855 156.855 631.074 154.324 631.664L89.5039 646.625C77.3516 649.434 81.9336 656.637 78.4609 657.457 78.125 657.523 76.9648 657.797 76.5625 656.035 76.3516 655.203 76.0859 651.855 74.7461 646.035 73.2617 639.656 72.1719 637.086 71.8438 635.605 71.582 634.395 72.6641 633.855 73.4609 633.676 77.2773 632.797 77.8125 644.547 88.3359 642.125L126.793 633.238C129.691 632.578 131.035 632.066 130.922 631.516 130.785 630.957 129.137 630.168 127.258 629.336L67.6836 603.945C65.1211 602.789 64.5664 604.078 63.8711 601.117 62.7734 596.207 62.6562 593.707 62.125 591.309 61.6953 589.555 60.875 588 60.4453 586.227 60.1836 585.129 61.0078 584.441 62.0664 584.219 67.6016 582.934 62.4961 595.016 84.6641 589.906L128.594 579.746" fill="#50565b" fill-rule="evenodd"/>
<path transform="matrix(.1,0,0,-.1,0,105)" d="M98.0273 679.402C87.3398 682.895 93.5977 688.336 89.7578 689.586 88.3906 690.035 88.0195 689.633 87.1406 686.941 85.4609 681.797 84.8672 678.402 83.8086 675.156 82.7891 671.98 81.1953 668.633 80.0586 665.102 79.7773 664.297 78.7148 662.145 80.625 661.523 84.5742 660.242 84.7188 671.477 95.0039 668.125L149.145 650.531C159.879 647.055 154.805 641.504 158.754 640.227 159.324 640.043 160.176 639.977 160.438 640.785 161.195 643.125 161.996 647.145 163.277 651.035 165.559 658.066 167.086 661.266 168.207 664.594 168.855 666.676 168.656 667.637 167.426 668.031 163.816 669.215 165.738 657.434 151.855 661.926L98.0273 679.402" fill="#50565b" fill-rule="evenodd"/>
<path transform="matrix(.1,0,0,-.1,0,105)" d="M124.727 746.848C119.387 752.027 121.52 755.355 119.02 756.453 117.156 757.285 116.969 755.918 116.148 754.098 115.059 751.664 114.41 749.059 113.324 746.625 112.219 744.105 110.719 741.875 109.566 739.355 109.105 738.316 107.664 735.957 109.746 735.035 113.523 733.336 113.406 743.895 123.598 739.348 125.328 738.574 129.059 736.723 135.156 730.883L162.809 704.348C163.445 703.746 164.82 702.715 164.555 702.207 164.324 701.676 162.629 701.926 161.777 702.016L121.855 706.273C114.285 707.047 108.688 708.184 105.414 709.625 100.867 711.645 104.828 716.148 101.895 717.438 100.051 718.266 99.957 717.773 98.7344 714.996 98.1133 713.613 97.4375 710.906 94.957 705.367 93.6562 702.406 91.8867 699.648 90.6367 696.809 90.0391 695.5 87.9961 693.191 90.5781 692.035 91.3477 691.703 92.5039 692.535 92.7148 692.734 95.375 695.805 97.1172 696.492 102.016 696.094L174.68 689.594C179.918 689.137 181.395 689.535 181.785 690.387 182.188 691.348 181.73 692.055 179.348 694.277L124.727 746.848" fill="#50565b" fill-rule="evenodd"/>
<path transform="matrix(.1,0,0,-.1,0,105)" d="M144.688 771.453C137.809 775.902 137.922 776.305 144.172 785.93 154.148 801.273 161.746 787.516 164.188 791.254 165.355 793.098 161.836 794.824 160.496 795.586L150.43 801.664C149.547 802.234 148.188 802.336 147.5 801.293 142.949 794.309 139.801 788.547 136.129 782.906 128.227 770.715 124.098 765.242 121.977 761.98 121.262 760.863 121.625 759.727 122.539 759.137 126.52 756.543 129.16 767.605 138.121 761.809L184.688 731.562C196.809 723.676 187.512 721.113 192.078 718.152 192.676 717.766 193.508 717.926 194.148 718.953 196.996 723.336 198.789 726.934 200.387 729.387 202.969 733.363 206.469 737.895 214.316 749.996 218.559 756.516 213.457 766.504 205.68 771.555 203.801 772.773 203.148 772.402 202.938 772.094 200.945 769.062 214.719 761.715 201.93 741.98 198.199 736.254 194.82 738.906 188.648 742.895L175.906 751.176C170.129 754.926 168.738 755.375 171.129 759.043L174.926 764.938C180.316 773.203 189.418 764.137 191.059 766.664 192.32 768.586 188.418 770.426 187.078 771.188L169 782.125C166.27 783.793 165.898 782.781 165.527 782.246 164.496 780.652 173.484 774.453 169.059 767.617L165.805 762.598C163.57 759.184 162.875 759.633 158.59 762.418L144.688 771.453" fill="#50565b" fill-rule="evenodd"/>
<path transform="matrix(.1,0,0,-.1,0,105)" d="M262.883 817.074C265.074 815.195 265.602 814.414 267.883 815.395 273.09 817.754 278.633 818.688 283.07 822.406 292.594 830.406 292.512 844.086 282.5 855.996 272.832 867.523 264.762 867.418 253.379 865.156 239.141 862.336 234.16 860.176 229.043 866.254 223.922 872.344 224.332 878.547 229.102 882.562 241.609 893.066 256.879 877.074 258.551 878.477 260.152 879.824 259.465 881.094 257.652 882.965L246.609 894.465C244.711 896.445 243.801 897.984 242.691 897.074 241.754 896.285 241.152 893.305 240.219 892.504 238.031 890.684 232.004 891.656 226.051 886.656 217.559 879.527 218.121 867.008 226.91 856.578 234.902 847.016 242.184 847.074 251.344 848.867 268.453 852.246 273.988 854.883 280.48 847.188 286.594 839.906 285.879 831.887 280.219 827.125 272.152 820.367 260.715 824.836 251.039 831.625 249.77 832.555 248.941 833.258 247.781 832.273 245.961 830.758 248.891 828.734 250.191 827.637L262.883 817.074" fill="#50565b" fill-rule="evenodd"/>
<path transform="matrix(.1,0,0,-.1,0,105)" d="M275.273 906.863C268.812 916.105 277.105 916.676 274.797 919.984 273.965 921.156 273.453 921.086 271.121 919.434 266.695 916.34 264.164 913.984 261.363 912.047 258.645 910.137 255.344 908.395 252.305 906.266 251.621 905.785 249.465 904.707 250.625 903.059 252.984 899.652 259.863 908.523 266.062 899.688L298.73 853.047C305.18 843.824 297.82 842.445 300.203 839.023 300.543 838.535 301.184 837.973 301.887 838.457 303.902 839.875 306.973 842.605 310.305 844.945 316.352 849.184 319.52 850.824 322.383 852.836 324.184 854.078 324.605 854.965 323.863 856.023 321.684 859.137 316.105 848.574 307.742 860.52L275.273 906.863" fill="#50565b" fill-rule="evenodd"/>
<path transform="matrix(.1,0,0,-.1,0,105)" d="M605.227 978.68C606.168 983.941 608.074 986.02 612.285 985.285 626.754 982.727 624.594 965.523 623.965 962.5 623.344 959.484 620.188 946.441 608.867 948.434 606.816 948.793 605.348 949.762 604.594 949.895 603.469 950.102 603.035 948.73 602.906 947.922 602.816 947.434 602.754 944.434 611.914 942.832 623.027 940.875 633.297 948.203 635.875 962.824 638.895 979.863 628.316 987.754 616.312 989.633 609.652 990.684 602.953 991.504 601.656 991.734 594.574 992.992 589.508 994.352 588.844 994.465 586.605 994.863 585.945 993.414 585.844 992.715 585.062 988.383 595.645 991.465 593.457 979.082L584.387 927.691C581.824 913.09 574.805 916.973 574.203 913.586 573.832 911.609 575.574 911.543 575.855 911.504 576.395 911.391 583.688 910.582 587.438 909.934 589.473 909.562 593.516 908.375 600.055 907.223 601.355 906.992 602.246 906.594 602.605 908.562 603.324 912.66 593.113 909.895 595.676 924.492L605.227 978.68" fill="#50565b" fill-rule="evenodd"/>
<path transform="matrix(.1,0,0,-.1,0,105)" d="M689.246 924.297C682.848 905.668 672.637 892.367 657.09 897.359 640.938 902.551 643.328 927.926 648.988 944.309 654.59 960.566 664.398 974.508 679.668 969.617 691.316 965.859 697.797 949.078 689.246 924.297M684.02 973.508C662.488 980.68 644.211 966.27 635.727 941.711 627.922 918.945 634.801 899.641 652.816 893.418 681.461 883.574 696.387 909.164 701.785 924.867 709.965 948.637 701.578 967.707 684.02 973.508" fill="#50565b" fill-rule="evenodd"/>
<path transform="matrix(.1,0,0,-.1,0,105)" d="M736.477 939.133C740.535 947.148 744.555 940.18 746.598 944.211 747.246 945.48 746.875 945.793 745.117 946.699 743.754 947.395 742.523 947.488 735.336 951.145 732.113 952.785 727.438 955.715 724.043 957.43 722.285 958.332 720.914 957.961 720.434 957.023 718.562 953.309 729.566 951.301 724.996 942.32L699.516 892.328C692.934 879.434 689.414 888.406 686.941 883.551 686.637 882.922 686.855 882.129 687.965 881.57 692.594 879.199 696.387 877.812 698.992 876.48 703.238 874.34 708.098 871.316 720.945 864.77 727.867 861.23 737.266 867.375 741.477 875.602 742.504 877.613 742.047 878.23 741.723 878.398 738.516 880.039 732.637 865.59 711.684 876.27 705.598 879.359 707.875 883.012 711.207 889.562L736.477 939.133" fill="#50565b" fill-rule="evenodd"/>
<path transform="matrix(.1,0,0,-.1,0,105)" d="M787.703 907.09C794.016 916.43 797.504 908.91 799.797 912.27 800.586 913.43 800.336 913.902 797.945 915.488 793.477 918.52 790.387 920.027 787.523 921.938 784.805 923.809 781.996 926.262 778.926 928.328 778.215 928.816 776.445 930.43 775.305 928.762 773.004 925.32 783.754 922.078 777.695 913.129L745.875 865.918C739.574 856.602 735.613 862.961 733.324 859.52 732.973 859.039 732.656 858.242 733.363 857.758 735.414 856.383 739.098 854.492 742.445 852.223 748.586 848.07 751.234 845.699 754.164 843.75 755.945 842.52 756.941 842.449 757.656 843.52 759.785 846.672 747.926 848.102 756.094 860.199L787.703 907.09" fill="#50565b" fill-rule="evenodd"/>
<path transform="matrix(.1,0,0,-.1,0,105)" d="M784.148 840.742C775.461 829.613 770.543 840.703 767.672 837.062 766.07 835.02 767.402 834.102 768.738 833.051 771.758 830.723 774.512 829.16 779.52 825.242 784.52 821.344 786.68 819.031 789.703 816.703 791.859 815 793.129 813.555 794.867 815.793 796.918 818.414 785.23 823.191 794.219 834.684L827.23 876.926C830.719 881.41 831.859 881.305 834.902 878.902L841.277 873.941C850.172 867.602 839.656 859.082 842.641 856.742 844.602 855.234 846.621 859.52 847.359 860.742L853.242 869.988C853.902 870.98 854.922 872.297 853.809 873.176 846.852 878.605 841.547 882.164 830.641 890.684 819.73 899.223 815 903.492 808.043 908.922 806.918 909.805 805.898 908.48 805.105 907.621L794.246 896.223C793.16 895.121 791.117 893.422 792.691 892.203 796.031 889.551 803.367 903.555 811.82 896.941L818.102 892.051C821.137 889.652 821.539 888.594 818.051 884.109L784.148 840.742" fill="#50565b" fill-rule="evenodd"/>
<path transform="matrix(.1,0,0,-.1,0,105)" d="M865.84 839.68C871.84 845.258 872.18 845.059 880 836.66 892.512 823.266 877.301 819.23 880.344 815.969 881.82 814.355 884.379 817.387 885.43 818.496L893.762 826.785C894.551 827.512 894.949 828.816 894.102 829.707 888.418 835.805 883.609 840.277 879 845.203 869.109 855.828 864.809 861.137 862.141 863.988 861.23 864.957 860.039 864.867 859.246 864.137 855.77 860.906 865.867 855.66 858.051 848.379L817.449 810.508C806.871 800.648 806.641 810.297 802.672 806.566 802.148 806.09 802.102 805.258 802.949 804.363 806.5 800.535 809.543 797.961 811.562 795.805 814.801 792.34 818.328 787.848 828.16 777.301 833.492 771.605 844.398 774.137 851.16 780.461 852.82 781.988 852.621 782.73 852.359 783 849.91 785.625 839.449 774.059 823.418 791.289 818.762 796.262 822.109 798.906 827.512 803.926L838.598 814.27C843.629 818.969 844.43 820.219 847.379 817.016L852.203 811.891C858.91 804.68 847.898 798.035 849.973 795.82 851.527 794.16 854.27 797.48 855.32 798.598L870.332 813.496C872.613 815.738 871.688 816.34 871.27 816.824 869.961 818.219 861.801 810.984 856.23 816.949L852.141 821.328C849.352 824.297 849.973 824.867 853.699 828.352L865.84 839.68" fill="#50565b" fill-rule="evenodd"/>
<path transform="matrix(.1,0,0,-.1,0,105)" d="M936.094 766.094C936.57 766.418 936.305 767.031 936.035 767.434 935.305 768.547 932.004 766.426 930.977 767.914 929.387 770.273 931.312 780.371 924.895 789.895 911.531 809.703 884.316 803.176 867.805 792.02 860.043 786.773 837.234 766.273 852.781 743.203 864.102 726.465 884.574 728.145 888.496 730.781 889.094 731.184 889.094 732.234 888.832 732.613 887.457 734.664 870.953 731.324 862.734 743.523 852.613 758.547 867.82 777.973 881.703 787.324 894.871 796.199 912.953 799.121 920.742 787.555 926.914 778.434 923.012 765.73 916.227 755.434 915.312 754.023 913.633 752.086 914.48 750.836 915.375 749.492 917.41 751.324 918.355 752.086L936.094 766.094" fill="#50565b" fill-rule="evenodd"/>
<path transform="matrix(.1,0,0,-.1,0,105)" d="M888.586 719.27C877.602 714.148 875.703 723.312 871.406 721.301 869.594 720.449 870.922 718.988 871.352 718.027 872.434 715.719 873.938 713.59 875.227 710.84 876.645 707.816 877.582 704.707 879.547 700.488 880.055 699.371 880.961 697.18 882.457 697.867 887.504 700.219 875.074 707.836 895.691 717.445L932.258 734.488C933.223 734.945 934.055 735.129 934.301 734.609 934.504 734.18 934.195 733.418 933.621 732.398L897.004 664.98C896.438 663.969 895.973 663.258 896.543 662.035 897.035 661.008 897.887 661.406 900.242 662.52L960.574 690.641C971.836 695.898 972.688 687.387 975.895 688.887 976.215 689.047 977.297 689.535 976.555 691.176 976.184 691.949 974.336 694.758 971.836 700.176 969.043 706.109 968.316 708.809 967.688 710.188 967.133 711.309 965.941 711.051 965.203 710.719 961.656 709.047 968.473 699.449 958.707 694.898L922.906 678.219C920.227 676.957 918.832 676.527 918.613 677.051 918.375 677.559 919.184 679.199 920.176 681.016L951.445 737.688C952.754 740.199 954.004 739.508 952.727 742.258 950.598 746.816 949.117 748.848 948.066 751.09 947.324 752.719 947.012 754.469 946.273 756.109 945.797 757.141 944.703 757.168 943.746 756.719 938.605 754.297 950.082 747.93 929.441 738.32L888.586 719.27" fill="#50565b" fill-rule="evenodd"/>
<path transform="matrix(.1,0,0,-.1,0,105)" d="M973.281 656.688C984 660.172 982.129 652.078 985.973 653.328 987.328 653.77 987.41 654.297 986.531 656.996 984.848 662.148 983.352 665.238 982.289 668.484 981.277 671.66 980.59 675.328 979.418 678.84 979.172 679.656 978.77 682.02 976.859 681.395 972.91 680.117 979.359 670.93 969.102 667.605L914.973 650.012C904.254 646.527 905.082 653.98 901.121 652.711 900.562 652.512 899.84 652.078 900.102 651.262 900.867 648.93 902.582 645.191 903.824 641.309 906.121 634.27 906.762 630.793 907.832 627.441 908.512 625.371 909.23 624.695 910.48 625.098 914.062 626.277 905.609 634.695 919.465 639.199L973.281 656.688" fill="#50565b" fill-rule="evenodd"/>
<path transform="matrix(.1,0,0,-.1,0,105)" d="M998.621 586.191C999.215 586.289 999.215 586.973 999.133 587.434 998.902 588.73 995.043 588.16 994.691 589.934 994.215 592.738 1000.07 601.191 998.07 612.5 993.922 636.039 966.402 641.113 946.781 637.652 937.574 636.031 908.402 626.555 913.23 599.172 916.734 579.273 936.121 572.473 940.793 573.293 941.492 573.422 941.926 574.359 941.832 574.828 941.41 577.262 925.016 580.922 922.449 595.398 919.281 613.242 941.105 624.801 957.562 627.711 973.223 630.469 990.914 625.781 993.336 612.051 995.266 601.199 986.531 591.191 976.152 584.543 974.73 583.625 972.402 582.539 972.688 581.031 972.945 579.453 975.582 580.293 976.734 580.602L998.621 586.191" fill="#50565b" fill-rule="evenodd"/>
<path transform="matrix(.1,0,0,-.1,0,105)" d="M319.688 287.324C316.648 285.02 316.48 285.168 312.855 289.98 307.055 297.645 314.57 298.438 313.18 300.312 312.488 301.23 311.176 299.922 310.621 299.465L306.379 295.996C305.984 295.715 305.746 295.078 306.129 294.57 308.77 291.074 311.016 288.469 313.148 285.645 317.73 279.57 319.719 276.555 320.938 274.934 321.355 274.363 321.969 274.336 322.367 274.609 324.117 275.957 319.316 279.395 323.297 282.383L344 297.949C349.371 302.02 349.258 297.188 351.309 298.73 351.566 298.953 351.605 299.355 351.215 299.863 349.57 302.051 348.148 303.586 347.207 304.812 345.707 306.809 344.078 309.324 339.527 315.391 337.055 318.633 331.688 318.262 328.219 315.676 327.398 315.02 327.465 314.648 327.59 314.473 328.73 312.969 334.098 317.891 341.527 308.027 343.676 305.156 341.977 304.141 339.246 302.051L333.598 297.781C331.008 295.859 330.605 295.312 329.238 297.129L327.016 300.078C323.895 304.219 329.41 306.641 328.445 307.91 327.738 308.848 326.34 307.434 325.766 306.941L318.121 300.742C316.957 299.805 317.387 299.434 317.578 299.16 318.18 298.359 322.34 301.289 324.918 297.871L326.797 295.371C328.105 293.66 327.789 293.438 325.891 291.992L319.688 287.324" fill="#50565b" fill-rule="evenodd"/>
<path transform="matrix(.1,0,0,-.1,0,105)" d="M329.18 321.355C332.82 321.418 334.359 319.082 335.383 319.863 336.012 320.332 335.438 320.82 334.789 321.641 333.848 322.91 332.711 324.082 331.711 325.391 330.859 326.504 330.211 327.754 328.73 329.688 328.148 330.461 327.777 330.598 327.422 330.332 325.891 329.141 329.781 326.477 327.422 324.719 326.801 324.258 325.312 323.855 323.328 323.75L316.07 323.406C314.391 323.32 313.43 323.242 313.352 323.34 313.23 323.516 313.629 324.434 314.109 325.742L317.102 333.652C317.578 334.941 317.98 335.801 318.891 336.484 320.57 337.773 321.621 335.117 322.93 336.113 323.629 336.66 323.102 337.168 322.68 337.734 321.758 338.953 320.68 340.203 319.062 342.168 317.578 344.062 317.07 345.188 316.391 346.094 315.172 347.715 314.742 348.086 314.172 347.656 313.199 346.914 315.113 345.188 312.922 339.551L307.797 326.191C307.242 324.719 307.062 323.887 306.383 323.406 305.891 323.035 304.59 323.125 303.219 323.066L292.93 322.754C286.527 322.527 285.398 325.684 284.379 324.902 283.891 324.531 283.84 324.16 284.352 323.496 285.789 321.543 286.879 320.48 287.777 319.277 288.609 318.184 289.332 316.895 290.707 315.02 290.852 314.883 291.223 314.16 292.02 314.766 293.109 315.559 290.277 318.184 292.223 319.656 293.02 320.242 293.902 320.48 296.648 320.566L303.762 320.781C304.438 320.82 305.297 320.957 305.531 320.684 305.719 320.391 305.469 319.824 305.27 319.363L301.289 310.438C300.98 309.785 300.551 309.062 300.191 308.801 298.578 307.598 297.051 310.02 295.98 309.188 295.742 309.023 295.41 308.816 296.051 307.938 296.891 306.855 297.758 306.062 300.039 303.02 302.309 300 303.109 298.594 303.848 297.59 304.391 296.875 304.73 296.816 305.16 297.141 306.812 298.391 303.254 299.004 307.031 308.164L311.051 317.852C311.469 318.938 312.102 320.586 312.488 320.906 312.797 321.133 314 321.113 315.141 321.133L329.18 321.355" fill="#50565b" fill-rule="evenodd"/>
<path transform="matrix(.1,0,0,-.1,0,105)" d="M479.309 828.945C485.508 828.945 490.508 823.926 490.508 817.742 490.508 811.562 485.508 806.543 479.309 806.543 473.137 806.543 468.105 811.562 468.105 817.742 468.105 823.926 473.137 828.945 479.309 828.945" fill="#50565b" fill-rule="evenodd"/>
<path transform="matrix(.1,0,0,-.1,0,105)" d="M378.516 806.543C384.688 806.543 389.719 801.523 389.719 795.344 389.719 789.148 384.688 784.133 378.516 784.133 372.312 784.133 367.312 789.148 367.312 795.344 367.312 801.523 372.312 806.543 378.516 806.543" fill="#50565b" fill-rule="evenodd"/>
<path transform="matrix(.1,0,0,-.1,0,105)" d="M710.598 764.141C707.887 757.711 705.004 756.742 694.375 758.613 685.508 760.172 685.727 771.82 686.215 776.754L671.285 781.094C664.887 768.312 657.297 767.613 651.395 768.434 640.676 769.902 640.129 787.691 640.766 798.16L625.406 801.27C617.965 780.219 614.613 776.98 605.254 775.266 600.043 774.312 596.062 777.66 594.145 779.742 590.883 783.301 588.926 788.148 588.648 792.711 589.047 794.98 589.297 797.301 589.387 799.664L573.867 802.062C573.145 799.441 572.797 796.688 572.789 793.93 571.438 787.781 568.555 782.473 564.906 779.77 562.387 777.898 559.758 777.41 556.645 778.242 549.195 780.211 539.297 786.25 539.297 815.77H523.477C523.477 814.863 523.508 814.004 523.523 813.121H523.477C523.477 791.879 518.285 781.449 506.148 778.242 503.047 777.422 500.188 778.102 497.418 780.312 493.586 783.359 490.676 788.863 489.625 794.531 489.656 796.852 489.488 799.148 489.078 801.391L473.383 800.219C473.316 798.023 473.457 795.801 473.754 793.594 473.383 788.129 471.047 782.434 467.398 778.789 464.402 775.793 461.086 774.609 457.535 775.266 448.035 777.004 443.344 781.301 436.023 801.941L420.699 798.832C421.348 787.891 420.969 769.352 411.016 767.992 405.48 767.223 398.848 768.414 391.492 783.082L376.566 778.73C377.578 768.691 373.676 759.023 368.02 757.621 357.965 755.102 357.965 755.102 353.316 763.141L351.977 765.438 338.344 757.434 339.633 755.211C346.855 742.738 352.398 737.402 371.848 742.27 380.559 744.441 386.426 751.105 389.625 759.352 396.426 753.473 404.297 751.094 413.176 752.32 420.996 753.402 429.605 757.938 433.918 771.371 439.059 765.273 445.527 761.391 454.68 759.723 463.375 758.102 471.863 760.914 478.574 767.613 480.117 769.148 481.516 770.859 482.766 772.699 484.23 770.934 485.824 769.32 487.555 767.938 494.238 762.633 502.266 760.859 510.188 762.961 520.684 765.73 527.387 771.672 531.676 778.613 536.527 770.629 543.484 765.371 552.598 762.961 560.387 760.902 567.887 762.309 574.309 767.051 576.293 768.531 578.145 770.344 579.805 772.383 580.637 771.223 581.539 770.121 582.496 769.055 589.516 761.41 598.848 758.012 608.113 759.723 617.324 761.41 623.438 765.172 628.098 770.801 633.066 757.473 642.59 753.684 649.246 752.766 656.215 751.801 664.918 752.488 672.934 758.422 676.348 750.18 682.828 744.59 691.637 743.043 699.867 741.594 716.996 738.57 725.168 758.023L710.598 764.141" fill="#50565b"/>
<path transform="matrix(.1,0,0,-.1,0,105)" d="M582.141 828.293C588.34 828.293 593.34 823.27 593.34 817.09 593.34 810.914 588.34 805.891 582.141 805.891 575.945 805.891 570.938 810.914 570.938 817.09 570.938 823.27 575.945 828.293 582.141 828.293" fill="#50565b" fill-rule="evenodd"/>
<path transform="matrix(.1,0,0,-.1,0,105)" d="M684.27 807.859C690.469 807.859 695.48 802.844 695.48 796.66 695.48 790.48 690.469 785.461 684.27 785.461 678.074 785.461 673.066 790.48 673.066 796.66 673.066 802.844 678.074 807.859 684.27 807.859" fill="#50565b" fill-rule="evenodd"/>
<path transform="matrix(.1,0,0,-.1,0,105)" d="M378.738 708.75 390.621 720.18 405.238 714.656 394 703.32 378.738 708.75" fill="#50565b" fill-rule="evenodd"/>
<path transform="matrix(.1,0,0,-.1,0,105)" d="M352.441 717.727C420.102 739.336 460.398 745.566 532.117 745.484 604.512 745.434 644.934 739.203 712.309 717.727 712.309 717.727 717.898 716.254 720.02 722.906 722.141 729.555 716.84 731.953 716.84 731.953 648.578 753.727 605.43 760.375 532.141 760.434 459.492 760.508 416.441 753.848 347.891 731.953 347.891 731.953 342.488 729.633 344.609 722.992 346.73 716.355 352.441 717.727 352.441 717.727" fill="#50565b"/>
<path transform="matrix(.1,0,0,-.1,0,105)" d="M366.855 674.023C372.992 675.312 379.285 676.754 385.938 678.281 419.465 685.98 461.188 695.562 531.395 695.625 589.516 695.676 628.938 687.742 678.855 677.703L697.324 674.016C697.324 674.016 702.984 673.176 704.324 679.91 705.664 686.648 700.227 688.66 700.227 688.66L681.797 692.355C631.062 702.555 590.996 710.613 531.379 710.551 459.488 710.492 416.848 700.715 382.582 692.844 376.016 691.332 369.797 689.902 363.785 688.645 363.785 688.645 358.336 686.562 359.727 679.91 361.121 673.262 366.855 674.023 366.855 674.023" fill="#50565b"/>
<path transform="matrix(.1,0,0,-.1,0,105)" d="M469.98 726.051 483.254 735.688 498.043 727.91 484.449 718.418 469.98 726.051" fill="#50565b" fill-rule="evenodd"/>
<path transform="matrix(.1,0,0,-.1,0,105)" d="M712.473 698.391C715.398 705.602 710.973 715.289 710.973 715.289 705.668 716.93 695.383 716.059 692.832 709.02 690.074 701.402 692.832 695.191 701.391 690.078 701.391 690.078 706.793 691.969 712.473 698.391" fill="#50565b" fill-rule="evenodd"/>
<path transform="matrix(.1,0,0,-.1,0,105)" d="M684.695 708.75 672.816 720.18 658.199 714.656 669.43 703.32 684.695 708.75" fill="#50565b" fill-rule="evenodd"/>
<path transform="matrix(.1,0,0,-.1,0,105)" d="M592.805 726.051 579.52 735.688 564.711 727.91 578.336 718.418 592.805 726.051" fill="#50565b" fill-rule="evenodd"/>
<path transform="matrix(.1,0,0,-.1,0,105)" d="M648.27 717.766C649.52 725.664 640.77 731.523 628.902 733.395 617.062 735.273 606.562 732.465 605.312 724.555 604.062 716.656 612.449 710.902 624.312 709.016 636.16 707.133 647.02 709.855 648.27 717.766" fill="#50565b" fill-rule="evenodd"/>
<path transform="matrix(.1,0,0,-.1,0,105)" d="M795.781 678.484C798.031 679.836 799.441 679.758 800.582 677.855 804.543 671.266 797.461 666.516 796.121 665.777 794.781 665.023 788.902 662.008 785.828 667.133 785.258 668.074 785.152 668.977 784.922 669.316 784.641 669.824 783.98 669.535 783.613 669.336 783.441 669.215 782.301 668.266 784.801 664.098 787.82 659.047 793.988 657.406 800.273 661.156 807.559 665.566 806.918 672.312 803.539 677.668 801.699 680.652 799.742 683.574 799.391 684.164 797.434 687.398 796.238 689.844 796.059 690.145 795.469 691.148 794.703 690.918 794.418 690.758 792.539 689.633 797.25 686.453 791.941 683.277L769.902 670.035C763.652 666.266 762.711 670.336 761.262 669.453 760.41 668.945 760.98 668.246 761.059 668.113 761.211 667.855 763.367 664.727 764.391 663.027 764.961 662.086 765.867 660.098 767.641 657.148 768.004 656.547 768.141 656.062 769 656.578 770.762 657.629 766.301 660.758 772.559 664.527L795.781 678.484" fill="#50565b" fill-rule="evenodd"/>
<path transform="matrix(.1,0,0,-.1,0,105)" d="M842.695 554.727C843.633 554.879 844.918 555.039 844.797 555.777 844.688 556.566 843.066 556.438 842.914 557.52 842.727 558.828 845.902 563.477 844.945 570.289 843.203 582.629 829.727 585.867 820.004 584.496 815.426 583.855 800.957 579.574 802.945 565.227 803.715 559.898 807.125 554.828 810.797 550.605 811.133 550.203 811.453 550.195 812.355 550.328 813.184 550.438 814.773 550.805 817.133 551.148 824.555 552.188 821.914 548.359 824.387 548.715 824.957 548.809 825.156 549.125 825.129 549.363 824.863 551.137 824.414 552.816 824.156 554.617 823.812 556.918 823.734 559.211 823.414 561.508 823.305 562.348 823.535 563.965 821.848 563.746 819.652 563.43 824.414 558.16 815.406 556.887 812.047 556.418 807.152 555.891 805.922 564.695 804.797 572.637 814.863 577.539 822.766 578.648 837.418 580.707 841.848 574.746 842.496 570.188 844.285 557.312 831.684 555.527 831.824 554.457 831.973 553.535 832.285 553.277 833.059 553.379L842.695 554.727" fill="#50565b" fill-rule="evenodd"/>
<path transform="matrix(.1,0,0,-.1,0,105)" d="M838.027 499.57C842.035 499.16 842.066 498.945 841.438 492.996 840.449 483.516 834.059 488.066 833.816 485.754 833.707 484.617 835.645 484.68 836.418 484.641L842.18 484.219C842.695 484.16 843.316 484.453 843.379 485.098 843.84 489.414 843.945 492.832 844.348 496.328 845.117 503.867 845.719 507.363 845.938 509.375 845.996 510.078 845.598 510.52 845.051 510.586 842.758 510.82 844.008 505.059 838.77 505.605L811.586 508.477C804.508 509.211 808.035 512.617 805.355 512.91 805.02 512.938 804.707 512.676 804.617 512.043 804.336 509.316 804.363 507.246 804.199 505.703 803.945 503.27 803.398 500.344 802.605 492.859 802.207 488.816 806.637 485.41 811.188 484.961 812.273 484.844 812.496 485.156 812.527 485.352 812.727 487.246 805.02 487.344 806.301 499.531 806.699 503.066 808.746 502.656 812.359 502.285L819.773 501.504C823.168 501.133 823.879 501.262 823.648 499.004L823.246 495.359C822.738 490.234 816.711 492.266 816.539 490.703 816.426 489.512 818.523 489.59 819.297 489.562L829.68 488.816C831.27 488.711 831.195 489.277 831.234 489.617 831.316 490.586 826.008 491.301 826.438 495.535L826.777 498.633C826.996 500.742 827.398 500.684 829.898 500.422L838.027 499.57" fill="#50565b" fill-rule="evenodd"/>
<path transform="matrix(.1,0,0,-.1,0,105)" d="M804.973 482.539C803.539 482.566 803.09 482.715 802.52 481.543 801.211 478.895 799.359 476.688 798.801 473.73 797.551 467.344 801.781 461.934 809.32 460.449 816.594 459.023 819.664 461.758 823.359 466.426 828.031 472.285 829.281 474.805 833.141 474.043 836.98 473.301 838.711 470.684 838.09 467.5 836.461 459.141 825.66 460.508 825.461 459.375 825.23 458.32 825.934 458.035 827.203 457.891L834.961 456.914C836.324 456.746 837.152 456.445 837.289 457.18 837.41 457.793 836.73 459.199 836.84 459.824 837.117 461.301 839.762 462.898 840.543 466.875 841.641 472.559 837.582 477.363 830.98 478.633 824.949 479.824 822.172 477.383 819.18 473.633 813.578 466.621 812.25 463.691 807.383 464.656 802.805 465.535 800.609 468.984 801.363 472.793 802.371 478.164 808.168 480.156 814 480.645 814.77 480.684 815.312 480.684 815.461 481.465 815.715 482.676 813.941 482.512 813.121 482.512L804.973 482.539" fill="#50565b" fill-rule="evenodd"/>
<path transform="matrix(.1,0,0,-.1,0,105)" d="M799.562 457.551C798.141 457.773 797.711 457.949 797.004 456.895 795.383 454.395 793.281 452.422 792.34 449.562 790.352 443.391 793.883 437.48 801.16 435.09 808.203 432.812 811.621 435.145 815.852 439.324 821.172 444.562 822.73 446.914 826.461 445.684 830.191 444.492 831.609 441.68 830.609 438.594 827.969 430.48 817.422 433.164 817.051 432.07 816.73 431.035 817.328 430.684 818.578 430.371L826.199 428.457C827.512 428.145 828.312 427.754 828.531 428.438 828.73 429.062 828.223 430.508 828.422 431.133 828.883 432.527 831.688 433.809 832.938 437.676 834.742 443.164 831.301 448.445 824.895 450.527 819.062 452.422 816 450.359 812.594 446.973 806.16 440.703 804.48 437.988 799.762 439.52 795.32 440.938 793.559 444.641 794.762 448.312 796.461 453.516 802.461 454.785 808.293 454.562 809.062 454.543 809.602 454.453 809.828 455.215 810.219 456.379 808.473 456.445 807.641 456.543L799.562 457.551" fill="#50565b" fill-rule="evenodd"/>
<path transform="matrix(.1,0,0,-.1,0,105)" d="M817.781 415.527C822.992 413.652 819.742 410.859 821.633 410.176 822.285 409.949 822.484 410.117 822.992 411.555 823.922 414.188 824.32 415.918 824.949 417.598 825.512 419.219 826.402 420.957 827.086 422.773 827.223 423.203 827.82 424.277 826.887 424.617 824.949 425.332 824.586 419.531 819.586 421.348L793.254 430.938C788.012 432.844 790.664 435.652 788.766 436.367 788.473 436.445 788.043 436.516 787.906 436.086 787.484 434.895 786.965 432.812 786.234 430.793 784.922 427.188 784.07 425.527 783.434 423.828 783.031 422.754 783.137 422.227 783.734 422.031 785.492 421.387 784.863 427.52 791.602 425.059L817.781 415.527" fill="#50565b" fill-rule="evenodd"/>
<path transform="matrix(.1,0,0,-.1,0,105)" d="M814.094 393.352C812.043 387.324 803.605 383.965 791.461 388.367 782.363 391.699 775.941 396.992 778.691 405.039 781.57 413.398 794.102 412.168 802.102 409.238 810.062 406.34 816.801 401.25 814.094 393.352M801.074 416.094C789.934 420.137 780.219 416.582 776.812 407.227 771.441 392.41 783.844 384.68 791.516 381.895 803.176 377.656 812.754 382.012 815.973 391.094 819.895 402.246 813.062 411.719 801.074 416.094" fill="#50565b" fill-rule="evenodd"/>
<path transform="matrix(.1,0,0,-.1,0,105)" d="M809.133 358.457 756.68 390.293C806.93 502.891 802.852 594.008 744.219 668.555L803.605 706.547C837.355 657.629 856.832 597.168 858.422 535.824 860.094 471.855 843.031 410.625 809.133 358.457M774.652 353.828C771.891 349.285 767.758 343.32 765.051 339.492L737.395 356.387 734.273 358.301 734.18 358.457 734.094 358.406 734.008 358.457 733.949 358.34 715.051 347.871C720.102 355.52 724.379 362.383 729.172 372.734 735.344 386.047 738.762 395.203 742.09 406.445L746.859 387.551 747.32 387.656 747.172 387.324 750 385.605 781.145 366.711C779.973 364.121 777.078 357.832 774.652 353.828M778.191 322.703C773.801 313.457 759.359 289.082 738.969 282.969 725.027 278.789 724.133 278.926 713.102 280.637L705.73 281.73C703.863 282.422 702.781 282.715 701.781 282.988 700.102 283.445 698.203 283.953 691.051 286.809 690.18 287.168 690.141 287.527 690.102 287.832 689.801 290.02 692.434 294.59 697.184 298.152L697.355 298.281C697.363 298.301 697.527 298.457 697.527 298.457L702.141 302.871C708.012 308.457 709.988 310.332 717.938 320.203 724.973 328.953 729.941 335.461 736.84 347.969L778.191 322.703ZM713.242 338.359 727.152 346.035C724.043 340.82 721.238 336.719 718.262 332.754L713.242 338.359ZM756.441 408.73C754.988 405.188 753.492 401.621 751.918 398.027L748.73 410.664 756.441 408.73ZM746.078 573.145 735.551 613.145 752.527 592.027 753.824 590.414 755.867 590.652 775.59 592.988C776.223 590.852 776.801 588.695 777.355 586.539L746.078 573.145ZM746.113 653.555C757.949 636.664 767.004 618.918 773.293 600.234L758.352 598.469 746.113 653.555ZM743.352 631.527 748.32 609.18 734.188 626.758 743.352 631.527ZM865.891 536.016C864.219 600.059 843.551 663.199 807.699 713.809L804.652 711.645 802.652 714.797 736.73 672.629 733.215 670.367 735.293 667.816 741.68 639.078 726.699 631.289 723.691 629.719 723.48 629.668 723.492 629.617 722.66 629.188 724.062 627.438 739.973 567.055 741.07 562.867 745.051 564.574 779.102 579.164C789.684 530.891 783.043 476.711 759.23 415.742L744.492 419.434 738.441 420.957 738.5 420.684 738.32 420.723C733.652 403.262 730.41 393.184 722.395 375.867 717.102 364.434 712.621 357.703 706.422 348.406L701.363 340.742 701.711 340.52 701.422 340.352 704.551 336.863 713.605 326.746C713.121 326.133 712.633 325.527 712.117 324.902 704.48 315.41 702.738 313.762 696.98 308.281L692.422 303.906C685.812 298.828 681.98 292.168 682.68 286.848 683.109 283.633 685.113 281.152 688.281 279.883 695.828 276.855 697.949 276.289 699.82 275.781 700.867 275.496 701.688 275.273 703.5 274.59L703.891 274.453C703.922 274.453 704.312 274.387 704.312 274.387L711.965 273.242C724.008 271.387 726.121 271.328 741.121 275.82 769.398 284.309 786.152 321.113 786.582 323.555L782.898 324.199 784.855 327.383 771.441 335.574C774.211 339.492 778.23 345.332 781.031 349.961 783.461 353.953 786.172 359.734 787.574 362.812L808.367 350.176 811.43 348.32 813.422 351.301C849.48 405.391 867.633 469.277 865.891 536.016M356.832 278.059C351.41 273.555 346.73 269.68 339.094 267.129 314.188 258.809 284.84 308.438 273.801 327.117L273.5 327.629 319.828 357.773C326.992 344.961 336.648 330.438 344.652 320.547 354.172 308.711 355.902 306.328 361.48 297.227 364.312 292.617 365.191 289.961 366.672 285.574V285.566C362.922 283.086 359.809 280.535 356.832 278.059M281.648 366.711 312.781 385.605 315.609 387.324 315.461 387.656 315.922 387.551 320.691 406.445C324.008 395.203 327.441 386.055 333.613 372.734 337.355 364.59 340.812 358.652 344.57 352.754L323.293 367.48 323.148 367.285 322.539 368.445 319.133 366.23 291.801 348.445C290.551 350.129 289.133 352.129 288.168 353.777 285.77 357.832 282.844 364.102 281.648 366.711M253.652 358.457C219.75 410.625 202.691 471.855 204.352 535.824 205.961 597.168 225.422 657.629 259.18 706.547L318.559 668.555C259.934 594 255.852 502.891 306.105 390.293L253.652 358.457ZM328.578 626.758 314.465 609.18 319.418 631.52 328.578 626.758ZM289.492 600.227C295.781 618.906 304.828 636.664 316.672 653.547L304.43 598.469 289.492 600.227ZM316.688 573.145 285.43 586.539C285.992 588.695 286.562 590.852 287.203 592.988L306.898 590.652 308.961 590.414 310.25 592.027 327.203 613.105 316.688 573.145ZM314.055 410.684 310.859 398.027C309.301 401.621 307.781 405.195 306.344 408.73L314.055 410.684ZM344.109 333.594C339.855 339.492 335.422 346.191 331.41 352.793L349.855 340.027 344.109 333.594ZM373.75 287.961C372.223 292.512 371.121 295.801 367.852 301.133 362.102 310.496 360.16 313.203 350.461 325.234 349.871 325.957 349.281 326.719 348.672 327.5L358.242 338.203 359.219 339.309 361.422 340.742 361.031 341.34 361.051 341.355 360.992 341.406 356.133 348.75C350.238 357.59 345.59 364.57 340.391 375.859 332.363 393.184 329.121 403.281 324.465 420.723L324.293 420.684 324.352 420.945 318.289 419.434 303.551 415.742C279.75 476.711 273.109 530.891 283.684 579.156L317.73 564.574 321.711 562.867 322.812 567.055 338.684 627.398 340.133 629.188 339.273 629.641 339.281 629.668 339.121 629.707 336.07 631.289 321.105 639.066 327.488 667.816 329.57 670.367 326.039 672.629 260.152 714.797 258.129 711.645 255.094 713.809C219.23 663.199 198.559 600.059 196.891 536.016 195.16 469.277 213.301 405.391 249.359 351.301L251.363 348.32 254.41 350.176 275.211 362.812C276.633 359.758 279.352 354.004 281.73 349.98 282.758 348.203 284.211 346.152 285.523 344.363L266.422 331.934 268.453 328.809 265.238 326.887 267.363 323.32C280.371 301.328 310.828 249.812 341.449 260.039 350.422 263.035 356.105 267.754 361.594 272.312 365.027 275.168 368.57 278.113 373.07 280.781L375.648 282.344C375.641 282.363 374.684 285.215 374.684 285.215L373.75 287.961" fill="#50565b"/>
<path transform="matrix(.1,0,0,-.1,0,105)" d="M554.102 728.32C554.254 736.328 544.781 740.918 532.781 741.129 520.762 741.328 510.754 737.102 510.609 729.082 510.473 721.078 519.57 716.547 531.621 716.34 543.613 716.137 553.992 720.32 554.102 728.32" fill="#50565b" fill-rule="evenodd"/>
<path transform="matrix(.1,0,0,-.1,0,105)" d="M413.855 717.766C412.605 725.664 421.328 731.523 433.188 733.395 445.066 735.273 455.566 732.465 456.816 724.555 458.066 716.656 449.68 710.902 437.797 709.016 425.938 707.133 415.105 709.855 413.855 717.766" fill="#50565b" fill-rule="evenodd"/>
<path transform="matrix(.1,0,0,-.1,0,105)" d="M275.195 412.09C281.133 414.98 281.195 408.75 283.152 409.695 284.223 410.234 283.805 410.977 283.402 411.777 282.543 413.562 281.656 414.961 280.164 417.93 278.688 420.957 278.176 422.52 277.324 424.316 276.664 425.625 276.387 426.582 275.195 425.984 273.793 425.305 278.035 420.305 271.926 417.312L249.434 406.348C247.047 405.176 246.586 405.52 245.676 407.336L243.824 411.145C241.105 416.211 247.324 417.461 246.477 419.238 245.902 420.41 244.195 418.965 243.621 418.594L239.309 415.859C238.824 415.586 238.145 415.242 238.457 414.57 240.492 410.41 242.145 407.5 245.336 400.969 248.523 394.426 249.797 391.328 251.816 387.148 252.152 386.492 252.848 386.836 253.375 387.031L260.293 389.512C260.977 389.734 262.195 390 261.734 390.957 260.777 392.949 254.895 388.457 252.418 393.516L250.598 397.273C249.688 399.102 249.734 399.648 252.125 400.84L275.195 412.09" fill="#50565b" fill-rule="evenodd"/>
<path transform="matrix(.1,0,0,-.1,0,105)" d="M236.152 438.672C232.488 437.637 232.371 437.82 230.691 443.613 228.043 452.832 235.359 450.898 234.691 453.145 234.379 454.258 232.711 453.516 232.031 453.254L226.82 451.555C226.344 451.406 225.922 450.918 226.086 450.305 227.281 446.094 228.441 442.852 229.414 439.465 231.523 432.129 232.281 428.605 232.852 426.641 233.051 425.977 233.594 425.703 234.082 425.852 236.211 426.477 232.945 431.387 237.742 432.754L262.613 439.895C269.133 441.777 267.281 437.305 269.75 437.988 270.074 438.105 270.242 438.457 270.074 439.07 269.301 441.719 268.5 443.672 268.109 445.156 267.402 447.539 266.801 450.469 264.691 457.742 263.586 461.672 258.422 463.262 254.262 462.07 253.242 461.797 253.184 461.387 253.242 461.191 253.785 459.375 260.543 462.043 263.949 450.176 264.934 446.738 262.965 446.387 259.672 445.438L252.871 443.477C249.77 442.598 249.172 442.227 248.539 444.414L247.535 447.969C246.105 452.938 252.133 453.23 251.703 454.766 251.363 455.898 249.539 455.059 248.863 454.824L239.48 451.758C238.051 451.289 238.312 450.812 238.434 450.469 238.684 449.531 243.621 450.781 244.789 446.66L245.676 443.645C246.285 441.57 245.883 441.484 243.605 440.828L236.152 438.672" fill="#50565b" fill-rule="evenodd"/>
<path transform="matrix(.1,0,0,-.1,0,105)" d="M235.156 465.227C241.387 466.23 245.445 470.898 244.566 476.516 243.766 481.582 238.793 485.02 237.438 484.812 236.836 484.727 236.809 484.414 236.836 484.219 236.988 483.43 240.242 481.484 240.707 478.586 241.438 473.953 235.945 470.41 230.699 469.59 227.305 469.031 223.246 469.27 222.645 473.047 222.219 475.691 223.953 476.824 226.484 477.852 226.855 477.988 227.285 478.164 227.195 478.586 227.047 479.441 224.27 481.887 223.297 481.719 220.117 481.211 219.926 476.543 220.176 474.863 221.215 468.242 227.828 464.102 235.156 465.227" fill="#50565b" fill-rule="evenodd"/>
<path transform="matrix(.1,0,0,-.1,0,105)" d="M223.242 528.473C217.812 528.473 220.172 532.07 218.062 532.07 217.594 532.07 217.41 531.875 217.41 531.02 217.41 528.871 217.641 527.043 217.641 524.434 217.641 521.352 217.41 520.062 217.41 518.008 217.41 517.312 217.301 516.855 218.301 516.855 219.922 516.855 217.93 522.344 224.016 522.344H231.793C233.023 522.344 234.301 522.051 234.301 520.609V505.793C234.301 504.766 233.594 504.562 232.09 504.562H223.301C218.352 504.562 219.98 508.398 218.242 508.398 217.691 508.398 217.41 507.969 217.41 507.246 217.41 505.793 217.641 503.809 217.641 500.82 217.641 498.23 217.41 496.738 217.41 495.254 217.41 494.316 217.473 492.805 218.301 492.805 220.398 492.805 217.992 498.438 224.016 498.438H248.691C255.531 498.438 253.551 494.199 255.77 494.199 256.516 494.199 256.594 494.707 256.594 495.312 256.594 497.781 256.391 499.883 256.391 501.973 256.391 505.547 256.594 507.207 256.594 509.238 256.594 510.828 256.172 510.754 255.828 510.754 253.844 510.754 255.828 504.562 248.969 504.562H240.273C237.859 504.562 237.289 504.727 237.289 507.012V520.305C237.289 522.488 237.891 522.344 240.219 522.344H250.191C255.531 522.344 254.062 518.711 255.992 518.711 256.391 518.711 256.594 519.023 256.594 519.707 256.594 522.242 256.391 524.195 256.391 525.98 256.391 528.031 256.594 530.961 256.594 532.613 256.594 533.262 256.648 533.66 255.941 533.66 253.785 533.66 255.828 528.473 248.812 528.473H223.242" fill="#50565b" fill-rule="evenodd"/>
<path transform="matrix(.1,0,0,-.1,0,105)" d="M249.688 543.145C255.316 542.574 253.84 537.906 256.059 537.688 256.988 537.582 256.797 538.605 256.848 539.156 256.988 540.492 256.91 541.863 257.078 543.457 257.246 545.195 257.645 546.855 257.867 549.297 257.93 549.945 258.141 551.176 257.367 551.266 254.746 551.516 257.867 544.785 247.266 545.855L228.508 547.727C227.988 547.766 227.629 547.914 227.656 548.215 227.676 548.469 227.988 548.734 228.445 549.031L259.578 570.055C260.027 570.367 260.398 570.566 260.461 571.273 260.52 571.875 260.09 571.902 258.867 572.035L227.91 575.145C222.109 575.715 223.84 579.805 222.195 579.977 222.016 579.996 221.488 580.043 221.367 579.098 221.34 578.656 221.367 576.895 221.059 573.766 220.719 570.348 220.336 568.918 220.289 568.125 220.211 567.465 220.738 567.273 221.148 567.246 222.961 567.047 222.559 573.215 227.598 572.695L245.984 570.863C247.359 570.73 248.008 570.566 247.98 570.254 247.949 569.977 247.246 569.434 246.387 568.867L220.059 551.332C218.914 550.547 218.59 551.176 218.406 549.586 218.16 546.953 218.238 545.637 218.129 544.355 218.02 543.395 217.73 542.523 217.605 541.598 217.559 540.996 217.988 540.691 218.469 540.652 221.117 540.375 218.098 546.312 228.695 545.254L249.688 543.145" fill="#50565b" fill-rule="evenodd"/>
<path transform="matrix(.1,0,0,-.1,0,105)" d="M231.66 599.855C226.508 600.969 229.246 604.203 227.387 604.586 226.738 604.719 226.57 604.504 226.262 603.031 225.688 600.266 225.52 598.453 225.152 596.715 224.781 595.016 224.148 593.145 223.762 591.254 223.672 590.816 223.242 589.613 224.18 589.434 226.051 589.023 225.719 594.844 230.629 593.812L256.621 588.285C261.77 587.191 259.641 583.984 261.508 583.594 261.801 583.535 262.203 583.535 262.289 583.984 262.539 585.234 262.758 587.383 263.207 589.473 264.039 593.285 264.641 595.055 265.012 596.848 265.258 597.965 265.133 598.441 264.531 598.574 262.789 598.945 264.133 592.965 257.473 594.363L231.66 599.855" fill="#50565b" fill-rule="evenodd"/>
<path transform="matrix(.1,0,0,-.1,0,105)" d="M243.176 645.703C242.926 645.801 242.754 645.492 242.664 645.266 242.402 644.605 244.082 643.91 243.746 643.023 243.203 641.621 238.684 639.254 236.523 633.625 232.035 621.914 241.617 612.734 250.312 609.402 254.375 607.844 268.395 604.863 273.621 618.473 277.434 628.383 271.523 636.305 269.48 637.105 269.164 637.211 268.734 636.902 268.652 636.676 268.164 635.465 273.746 629.703 270.973 622.48 267.562 613.613 255.902 613.812 248.605 616.609 241.703 619.262 235.895 625.812 238.547 632.641 240.586 638.031 246.676 640.414 252.535 640.844 253.336 640.914 254.52 640.812 254.805 641.562 255.113 642.344 253.863 642.613 253.336 642.773L243.176 645.703" fill="#50565b" fill-rule="evenodd"/>
<path transform="matrix(.1,0,0,-.1,0,105)" d="M349.734 120.996C349.594 119.492 349.594 118.008 348.855 116.543 348.316 115.488 346.988 116.309 345.168 117.219L331.516 124.18C329.695 125.098 328.246 125.723 328.773 126.77 329.527 128.262 330.719 129.102 331.887 130.129L349.137 144.883C350.227 145.781 350.676 145.703 350.875 145.586 351.387 145.332 351.074 145.48 351.246 144.336L349.734 120.996ZM365.453 159.062C365.777 162.871 365.699 163.223 364.773 163.672 363.477 164.324 361.934 162.598 360.367 161.25L300.605 111.152C295.066 106.523 290.289 109.797 289.039 107.355 288.316 105.984 290.055 105.352 291.453 104.656 294.387 103.164 297.504 102.109 300.527 100.574 303.707 98.9375 306.527 96.9727 309.734 95.3516 311.836 94.2695 314.566 91.9414 315.707 94.1602 317.148 97.0117 305.434 100.84 309.336 108.457 310.613 110.996 313.914 113.977 315.707 115.742 321.566 121.504 323.895 120.891 325.598 120L345.355 109.941C347.98 108.605 347.945 107.285 347.035 97.3438 346.695 93.9258 346.445 91.6797 345.242 89.3555 341.988 82.8906 335.434 87.7031 333.879 84.6289 333.105 83.1523 334.527 82.6953 336.348 81.7969 339.246 80.293 343.176 78.8281 347.605 76.582 354.195 73.2031 356.703 71.4062 360.316 69.5508 363.047 68.1758 363.84 67.4805 364.758 69.3086 366.516 72.793 359.016 71.4062 359.594 80.5664L365.453 159.062" fill="#50565b" fill-rule="evenodd"/>
<path transform="matrix(.1,0,0,-.1,0,105)" d="M789.043 161.973 776.965 152.539C775.359 151.289 774.203 150.195 773.461 151.145 772.473 152.441 772.184 153.887 771.754 155.371L765.645 177.266C765.305 178.633 765.582 179.004 765.754 179.141 766.211 179.48 765.922 179.258 767.074 178.945L787.535 167.715C788.871 166.941 790.203 166.328 791.23 165.02 791.973 164.07 790.637 163.223 789.043 161.973M840.762 159.465C838.355 162.539 836.41 155.137 828.375 159.59L759.691 198.008C756.371 199.949 756.035 199.98 755.234 199.355 754.102 198.477 755.043 196.348 755.57 194.355L775.715 119.004C777.555 112.043 772.602 109.055 774.281 106.926 775.227 105.703 776.504 107.012 777.754 107.988 780.312 109.961 782.582 112.355 785.266 114.465 788.105 116.68 791.062 118.379 793.902 120.598 795.781 122.051 799.023 123.555 797.496 125.508 795.523 128.008 787.113 119.062 781.84 125.77 780.082 128.008 778.785 132.258 777.965 134.609 775.16 142.383 776.734 144.238 778.242 145.391L795.754 159.062C798.051 160.859 799.223 160.266 807.844 155.266 810.793 153.496 812.727 152.305 814.34 150.254 818.812 144.57 811.715 140.645 813.812 137.949 814.836 136.641 815.836 137.742 817.449 138.992 820.016 140.977 823.012 143.945 826.914 146.98 832.773 151.562 835.484 153.066 838.66 155.547 841.047 157.41 842.012 157.871 840.762 159.465" fill="#50565b" fill-rule="evenodd"/>
<path transform="matrix(.1,0,0,-.1,0,105)" d="M427.898 806.516C421.441 805.137 415.078 809.262 413.684 815.73 412.309 822.227 416.441 828.594 422.922 829.957 429.398 831.332 435.754 827.191 437.141 820.723 438.512 814.254 434.379 807.895 427.898 806.516M457.605 820.512 455.25 831.516C454.312 836.016 449.902 838.887 445.383 837.914L435.859 835.844 433.73 845.883C432.777 850.375 428.352 853.242 423.855 852.285L412.996 849.977C408.48 849.016 405.609 844.605 406.57 840.102L408.617 830.102 399.211 828.105C394.723 827.152 391.852 822.734 392.809 818.242L395.152 807.234C396.109 802.742 400.52 799.875 405.012 800.844L451.184 810.645C455.668 811.602 458.539 816.023 457.605 820.512" fill="#50565b" fill-rule="evenodd"/>
<path transform="matrix(.1,0,0,-.1,0,105)" d="M531.074 822.512C524.441 822.512 519.062 827.883 519.062 834.492 519.062 841.098 524.441 846.469 531.074 846.469 537.703 846.469 543.043 841.098 543.043 834.492 543.043 827.883 537.703 822.512 531.074 822.512M554.645 849.602H545.016L544.957 859.801C544.957 864.391 541.234 868.121 536.656 868.121H525.492C520.902 868.121 517.172 864.391 517.172 859.801V849.543L507.434 849.59C502.82 849.59 499.094 845.859 499.094 841.27V830.02C499.094 825.43 502.82 821.711 507.434 821.711H554.645C559.242 821.711 562.973 825.43 562.973 830.02V841.27C562.973 845.879 559.242 849.602 554.645 849.602" fill="#50565b" fill-rule="evenodd"/>
<path transform="matrix(.1,0,0,-.1,0,105)" d="M649.102 815.738C647.699 809.27 641.371 805.137 634.883 806.52 628.402 807.887 624.281 814.258 625.645 820.727 627.043 827.195 633.383 831.34 639.855 829.945 646.344 828.598 650.465 822.219 649.102 815.738M663.574 828.105 654.16 830.105 656.211 840.105C657.184 844.602 654.312 849.02 649.812 849.965L638.91 852.285C634.426 853.238 630.02 850.367 629.055 845.879L626.926 835.84 617.395 837.922C612.898 838.879 608.473 836.008 607.535 831.52L605.172 820.52C604.242 816.023 607.113 811.598 611.602 810.648L657.773 800.84C662.262 799.879 666.703 802.75 667.641 807.234L669.973 818.238C670.941 822.738 668.062 827.156 663.574 828.105" fill="#50565b" fill-rule="evenodd"/>
<path transform="matrix(.1,0,0,-.1,0,105)" d="M723.848 767.031C718.199 770.449 716.34 777.793 719.758 783.473 723.168 789.148 730.527 790.98 736.176 787.559L723.848 767.031ZM743.098 807.461C739.137 809.844 734.027 808.559 731.672 804.617L726.406 795.828 718.047 800.902C714.117 803.262 709.008 801.992 706.637 798.062L700.852 788.422C698.484 784.465 699.766 779.352 703.688 776.98L721.809 765.438C725.746 763.07 730.84 764.332 733.227 768.281L739.039 777.922C741.387 781.859 743.188 785.43 743.188 785.43L752.617 801.754 743.098 807.461" fill="#50565b" fill-rule="evenodd"/>
<path transform="matrix(.1,0,0,-.1,0,105)" d="M338.938 767.031 326.598 787.559C332.258 790.98 339.613 789.148 343.027 783.473 346.445 777.793 344.586 770.449 338.938 767.031M361.934 788.422 356.148 798.062C353.773 801.992 348.688 803.262 344.734 800.902L336.406 795.828 331.117 804.617C328.754 808.559 323.637 809.844 319.688 807.461L310.164 801.754 319.625 785.43C319.625 785.43 321.395 781.859 323.773 777.922L329.574 768.281C331.949 764.332 337.035 763.07 340.984 765.438L359.098 776.98C363.047 779.352 364.324 784.465 361.934 788.422" fill="#50565b" fill-rule="evenodd"/>
<path transform="matrix(.1,0,0,-.1,0,105)" d="M205.078 809.973C203.199 807.82 200.891 805.18 198.648 807.117L180.566 822.852C175.199 827.512 177.129 829.73 179.43 832.375 185.707 839.609 195.828 837.859 204.59 830.238 209.879 825.641 214.516 820.852 205.078 809.973M259.238 813.551C258.531 814.16 257.617 814.199 257.047 813.551 256.426 812.844 256.34 811.66 255.707 810.941 255.23 810.371 254.039 809 252.035 809.609 236.301 814.262 218.02 819.453 217.465 819.922 216.586 820.703 217.59 823.48 217.34 827.34 216.977 831.289 215.488 836.238 209.766 841.211 205.648 844.789 191.77 854.352 178.16 838.652 173.98 833.863 170.105 828.672 165.93 823.891 161.996 819.371 161.137 819.109 158.266 815.82 157.539 814.961 157.367 813.852 158.246 813.07 161.5 810.281 164.957 820.961 174.965 812.25L214.379 778.012C225.641 768.203 217.645 764.961 220.52 762.473 222.309 760.918 223.328 762.66 224.02 763.453 227.141 767.02 229.887 770.918 233.246 774.781 235.867 777.781 237.91 779.398 238.969 780.621 240.375 782.27 240.355 783.328 239.555 784 236.316 786.832 233.816 776.531 224.27 784.863L208.77 798.32C205.648 801.031 204.648 801.172 207.949 804.961 211.051 808.539 212.98 809.133 218.352 807.348L237.719 801.059C244.859 798.777 252.465 796.172 257.387 801.84 259.867 804.691 262.016 811.133 259.238 813.551" fill="#50565b" fill-rule="evenodd"/>
<path transform="matrix(.1,0,0,-.1,0,105)" d="M406.602 930.195 394.34 926.195C392.699 925.684 391.469 925.145 391.105 926.285 390.59 927.867 390.742 929.262 390.762 930.777L391.223 953.004C391.25 954.387 391.594 954.613 391.762 954.684 392.223 954.824 391.965 954.746 392.781 954.004L406.812 936.008C407.711 934.785 408.652 933.734 409.16 932.133 409.531 931.016 408.223 930.715 406.602 930.195M448.461 908.242C447.23 911.965 443.793 905.984 438.312 913.066L391.516 974.176C389.234 977.172 389.004 977.344 388.176 977.086 387.012 976.695 387.23 974.414 387.223 972.402L384.91 896.207C384.711 889.156 379.902 888.336 380.73 885.73 381.211 884.297 382.582 884.977 383.863 885.387 386.469 886.234 388.941 887.523 391.648 888.402 394.52 889.348 397.395 889.773 400.266 890.715 402.172 891.332 405.199 891.453 404.473 893.824 403.473 896.863 394.293 891.902 391.68 900.004 390.801 902.727 390.762 907.086 390.652 909.555 390.312 917.668 392.07 918.734 393.613 919.234L411.383 924.996C413.738 925.777 414.543 924.785 420.391 916.953 422.355 914.223 423.66 912.41 424.465 909.938 426.715 903.059 419.883 902.207 420.973 898.938 421.469 897.363 422.562 897.965 424.203 898.496 426.812 899.348 430.012 900.875 433.984 902.172 439.934 904.105 442.512 904.441 445.754 905.492 448.203 906.293 449.082 906.324 448.461 908.242" fill="#50565b" fill-rule="evenodd"/>
<path transform="matrix(.1,0,0,-.1,0,105)" d="M983.484 546.008 962.797 536.074C961.426 535.453 960.176 534.766 958.523 534.594 957.336 534.488 957.336 535.816 957.156 537.523L955.844 550.414C955.684 552.125 955.426 553.445 956.617 553.562 958.277 553.734 959.633 553.285 961.117 552.965L982.816 547.766C984.164 547.418 984.348 547.055 984.348 546.855 984.402 546.379 984.363 546.656 983.484 546.008M1007.08 545.586C1006.98 546.824 1004.68 547.066 1002.71 547.535L928.445 566.074C921.566 567.781 921.797 572.688 919.066 572.418 917.523 572.246 917.895 570.766 918.035 569.434 918.316 566.684 919.066 563.965 919.348 561.129 919.656 558.098 919.469 555.215 919.773 552.168 919.965 550.176 919.434 547.168 921.902 547.418 925.117 547.734 922.188 557.773 930.727 558.629 933.562 558.918 937.855 558 940.309 557.578 948.344 556.188 949.004 554.25 949.164 552.629L951.047 533.945C951.273 531.477 950.145 530.883 941.207 526.836 938.113 525.48 936.062 524.586 933.445 524.336 926.227 523.594 926.855 530.48 923.406 530.117 921.738 529.965 922.105 528.734 922.273 527.047 922.555 524.297 923.383 520.836 923.773 516.66 924.402 510.391 924.203 507.793 924.547 504.375 924.805 501.816 924.633 500.938 926.656 501.133 930.574 501.531 925.426 506.191 933.562 510.066L1003.54 542.926C1006.98 544.527 1007.21 544.734 1007.08 545.586" fill="#50565b" fill-rule="evenodd"/>
<path transform="matrix(.1,0,0,-.1,0,105)" d="M818.047 594.309C808.828 591.328 800.535 591.539 797.75 599.566 794.848 607.93 805.48 614.668 813.59 617.305 821.645 619.926 830.066 620.066 832.836 612.168 834.906 606.137 830.328 598.297 818.047 594.309M835.68 611.539C831.93 622.75 820.719 626.008 808.547 622.055 797.258 618.391 791.824 609.609 794.906 600.168 799.797 585.156 814.324 586.719 822.109 589.23 833.879 593.059 838.77 602.398 835.68 611.539" fill="#50565b" fill-rule="evenodd"/>
<path transform="matrix(.1,0,0,-.1,0,105)" d="M810.508 638.492C807.379 637.031 804.285 635.922 801.098 642.73 800.48 644.062 799.707 645.73 801.051 646.344L811.73 651.344C814.887 652.82 815.535 651.422 816.316 649.762 818.438 645.238 815.688 640.914 810.508 638.492M819.469 648.98C818.074 652.004 816.426 654.941 815.027 657.938 813.688 660.77 813.75 661.223 812.789 663.281 812.559 663.832 812.078 664.148 811.539 663.91 809.629 663.023 813.867 659.055 807.949 656.27L784.641 645.41C777.98 642.301 778.035 646.754 776.34 645.973 775.289 645.461 775.879 644.602 776.109 644.109 777.156 641.871 778.406 639.73 779.535 637.289 780.43 635.422 780.766 634.109 781.117 633.352 781.586 632.32 782.07 632.109 782.559 632.328 784.469 633.23 780.23 636.641 785.891 639.293L795.051 643.551C796.93 644.426 797.148 644.863 798.246 642.48 799.309 640.254 799.188 639.219 797.348 637.102L790.746 629.434C788.328 626.621 785.668 623.625 787.32 620.102 788.141 618.301 790.699 615.891 792.32 616.66 792.75 616.852 792.938 617.25 792.77 617.66 792.539 618.102 792.027 618.422 791.809 618.863 791.625 619.219 791.23 620.074 791.918 620.859 797.055 627.203 802.98 634.59 803.285 634.742 803.828 634.988 804.906 633.91 806.73 633.176 808.609 632.461 811.156 632.09 814.535 633.66 816.988 634.789 824.047 639.18 819.469 648.98" fill="#50565b" fill-rule="evenodd"/>
<path transform="matrix(.1,0,0,-.1,0,105)" d="M844.453 528.629C843.977 523.637 839.363 521.301 833.652 521.879 830.18 522.219 826.941 522.836 827.715 530.355 827.852 531.836 828.023 533.656 829.504 533.516L841.305 532.348C844.797 531.977 844.664 530.449 844.453 528.629M847.582 543.297C845.484 543.496 847.105 537.898 840.551 538.559L814.863 541.129C807.496 541.863 809.836 545.68 807.953 545.859 806.781 545.977 806.863 544.918 806.812 544.391 806.555 541.91 806.555 539.41 806.273 536.746 806.074 534.656 805.703 533.352 805.613 532.527 805.504 531.387 805.824 530.945 806.352 530.906 808.461 530.68 806.555 535.82 812.781 535.195L822.914 534.18C824.949 533.98 825.383 534.23 825.121 531.605 824.863 529.141 824.262 528.297 821.57 527.426L811.934 524.199C808.414 522.996 804.543 521.777 804.176 517.871 803.965 515.906 804.934 512.512 806.734 512.344 807.211 512.285 807.574 512.551 807.602 512.988 807.66 513.484 807.383 514.023 807.41 514.512 807.473 514.902 807.562 515.852 808.512 516.211 816.254 519.023 825.121 522.379 825.492 522.348 826.062 522.289 826.465 520.797 827.652 519.219 828.902 517.656 830.922 516.008 834.672 515.645 837.355 515.352 845.676 515.52 846.754 526.355 847.105 529.668 847.211 533.047 847.535 536.355 847.844 539.469 848.125 539.848 848.355 542.117 848.414 542.719 848.152 543.238 847.582 543.297" fill="#50565b" fill-rule="evenodd"/>
<path transform="matrix(.1,0,0,-.1,0,105)" d="M277.488 663.398 274.188 657.457C273.77 656.688 273.492 656.035 272.996 656.316 272.309 656.688 271.938 657.246 271.461 657.777L264.762 665.891C264.359 666.418 264.41 666.605 264.438 666.699 264.578 666.918 264.504 666.777 265.039 666.824L275.789 665.527C276.461 665.449 277.156 665.398 277.832 665.02 278.32 664.766 277.922 664.172 277.488 663.398M299.703 670.898C298.109 671.785 298.684 668.391 294.457 668.895L258.328 673.57C256.559 673.809 256.43 673.777 256.199 673.379 255.891 672.809 256.68 672.07 257.281 671.348L280.027 643.297C282.129 640.707 280.621 638.648 281.73 638.035 282.348 637.695 282.641 638.438 282.98 639.047 283.691 640.309 284.199 641.68 284.91 642.98 285.68 644.379 286.621 645.566 287.387 646.977 287.898 647.887 288.969 649.047 287.961 649.609 286.648 650.348 284.828 645.211 281.328 647.141 280.172 647.789 278.801 649.324 278.008 650.176 275.391 652.949 275.699 653.961 276.098 654.707L280.852 663.285C281.469 664.43 282.102 664.363 286.648 663.707 288.242 663.484 289.27 663.297 290.344 662.695 293.301 661.07 291.051 658.277 292.449 657.48 293.129 657.109 293.359 657.738 293.777 658.523 294.492 659.785 295.18 661.508 296.262 663.43 297.852 666.301 298.684 667.359 299.562 668.945 300.199 670.105 300.531 670.449 299.703 670.898" fill="#50565b" fill-rule="evenodd"/>
<path transform="matrix(.1,0,0,-.1,0,105)" d="M629.18 283.496C605.668 255.449 586.957 241.973 565.297 226.367 554.18 218.359 547.004 213.613 533.699 202.605 493.73 229.961 469.082 247.051 433.5 283.242 374.16 343.633 369.57 406.062 369.57 487.656V659.496L696.48 659.477V487.656C696.48 402.012 686.77 352.207 629.18 283.496M696.48 674.258 692.789 674.309H354.762V487.656C354.762 405.266 359.781 337.141 422.93 272.871 460.133 235.02 485.422 217.695 527.328 189.004L529.902 187.246 534.512 184.102 538.809 187.645C551.738 198.34 563.043 206.477 573.969 214.355 596.441 230.535 615.84 244.531 640.543 273.977 700.699 345.781 711.301 400.098 711.301 487.656V674.258H696.48" fill="#50565b"/>
<path transform="matrix(.1,0,0,-.1,0,105)" d="M891.902 856.895 885.941 867.617 880.465 850.574 884.07 844.062 891.902 856.895" fill="#50565b" fill-rule="evenodd"/>
<path transform="matrix(.1,0,0,-.1,0,105)" d="M467.129 925.41C470.066 911.555 458.352 914.91 459.309 910.383 459.859 907.805 461.422 908.254 463.109 908.609 466.82 909.41 469.801 910.52 476.039 911.859 482.281 913.168 485.461 913.367 489.199 914.16 491.898 914.742 493.828 914.781 493.227 917.578 492.539 920.828 481.328 914.91 478.293 929.238L467.102 981.879C465.906 987.473 466.711 988.273 470.535 989.074L478.445 990.762C489.059 993.492 488.84 979.93 492.566 980.723 494.988 981.242 492.988 985.562 492.512 986.93L489.211 997.414C488.879 998.551 488.52 1000.2 487.141 999.895 478.469 998.062 472.328 996.262 458.723 993.379 445.105 990.488 438.777 989.617 430.105 987.777 428.711 987.473 429.059 985.852 429.211 984.66L430.992 968.98C431.117 967.422 431.098 964.742 433.07 965.16 437.27 966.051 431.23 980.699 441.746 982.941L449.57 984.617C453.398 985.422 454.457 985.031 455.648 979.449L467.129 925.41" fill="#50565b" fill-rule="evenodd"/>
<path transform="matrix(.1,0,0,-.1,0,105)" d="M342.297 881.523C348.832 868.953 336.656 869.031 338.793 864.922 340.004 862.594 341.387 863.453 342.926 864.242 346.285 866.012 348.867 867.891 354.508 870.844 360.188 873.805 363.184 874.824 366.555 876.582 369.004 877.883 370.863 878.422 369.535 880.961 367.984 883.91 358.773 875.227 352.016 888.191L327.113 935.914C324.465 940.973 325.023 941.953 328.508 943.738L335.684 947.504C345.168 952.984 348.586 939.863 351.965 941.621 354.156 942.766 351.062 946.391 350.242 947.562L344.242 956.793C343.613 957.812 342.828 959.281 341.578 958.633 333.715 954.531 328.277 951.164 315.945 944.711 303.621 938.281 297.742 935.762 289.895 931.66 288.633 931 289.414 929.52 289.863 928.434L295.797 913.793C296.324 912.324 297.055 909.73 298.812 910.676 302.605 912.652 292.875 925.152 302.418 930.133L309.508 933.824C312.953 935.645 314.086 935.543 316.715 930.492L342.297 881.523" fill="#50565b" fill-rule="evenodd"/>
<path transform="matrix(.1,0,0,-.1,0,105)" d="M484.055 142.793 471.902 141.953 484.961 129.871 492.305 130.391 484.055 142.793" fill="#50565b" fill-rule="evenodd"/>
<path transform="matrix(.1,0,0,-.1,0,105)" d="M1387.72 948.879C1391.78 947.938 1396.14 947.312 1400.5 947.312 1403.62 947.312 1407.07 947.938 1409.86 948.879 1407.37 919.887 1404.87 865.004 1404.24 819.496 1403.62 764.316 1371.51 729.707 1315.41 729.707 1253.67 729.707 1226.24 758.391 1226.24 818.879 1226.24 838.207 1227.79 852.539 1227.79 868.125 1227.79 902.418 1226.54 930.797 1225.91 948.879 1230.9 947.938 1237.13 947.312 1242.12 947.312 1246.49 947.312 1251.48 947.938 1255.54 948.879 1253.67 930.48 1251.8 888.086 1251.8 841.949 1251.8 799.535 1251.8 744.355 1321.31 744.355 1389.6 744.355 1389.6 808.266 1389.6 847.551 1389.6 906.785 1389.6 936.719 1387.72 948.879" fill="#50565b"/>
<path transform="matrix(.1,0,0,-.1,0,105)" d="M1665.25 729.703C1617.88 785.512 1561.12 845.371 1507.81 902.113 1507.5 890.57 1506.88 871.871 1506.88 838.824 1506.88 812.012 1508.13 746.23 1509.68 733.762 1506.26 734.703 1502.51 735.32 1498.77 735.32 1495.03 735.32 1491.29 734.703 1487.24 733.762 1489.74 748.414 1493.78 828.223 1493.78 869.371 1493.78 908.66 1493.78 938.891 1492.84 952.93H1497.84C1548.65 897.742 1617.54 822.613 1655.6 784.262 1655.6 840.074 1655.6 900.863 1653.1 948.871 1656.52 947.938 1660.26 947.324 1663.7 947.324 1667.13 947.324 1670.24 947.938 1673.67 948.871 1671.8 930.484 1668.68 868.75 1668.68 844.434 1668.68 812.633 1669.31 743.73 1669.63 729.703H1665.25" fill="#50565b"/>
<path transform="matrix(.1,0,0,-.1,0,105)" d="M1756.04 868.125C1756.04 894.945 1754.79 922.066 1753.54 948.879 1758.85 947.934 1763.84 947.312 1768.82 947.312 1773.82 947.312 1778.8 947.934 1784.1 948.879 1782.85 922.066 1781.61 894.945 1781.61 868.125V814.508C1781.61 787.695 1782.85 760.566 1784.1 733.754 1778.8 734.695 1773.82 735.312 1768.82 735.312 1763.84 735.312 1758.85 734.695 1753.54 733.754 1754.79 760.566 1756.04 787.695 1756.04 814.508V868.125" fill="#50565b"/>
<path transform="matrix(.1,0,0,-.1,0,105)" d="M1836.88 948.879C1842.2 947.938 1847.8 947.312 1853.12 947.312 1858.41 947.312 1864.02 947.938 1869.33 948.879 1887.71 893.695 1914.21 827.598 1940.4 764.629 1963.15 815.129 1998.08 908.035 2011.17 948.879 2014.91 947.938 2018.96 947.312 2022.71 947.312 2026.45 947.312 2030.5 947.938 2034.24 948.879 2001.82 877.168 1971.88 805.469 1944.46 733.754 1941.03 734.695 1937.59 735.316 1934.18 735.316 1930.73 735.316 1926.68 734.695 1923.88 733.754 1905.18 785.195 1867.14 877.168 1836.88 948.879" fill="#50565b"/>
<path transform="matrix(.1,0,0,-.1,0,105)" d="M2088.72 868.438C2088.72 895.258 2087.48 922.379 2086.22 948.879 2104.93 947.938 2123.33 947.32 2142.04 947.32 2160.74 947.32 2179.13 947.938 2197.54 948.879 2196.9 945.758 2196.6 942.637 2196.6 939.516 2196.6 936.406 2196.9 933.285 2197.52 930.168 2171.34 932.035 2156.06 934.23 2115.54 934.23 2115.22 920.82 2114.29 909.906 2114.29 894.629 2114.29 878.418 2114.6 861.27 2114.6 853.477 2151.4 853.477 2171.96 855.039 2190.36 856.586 2189.74 853.477 2189.42 850.051 2189.42 846.938 2189.42 843.816 2189.74 840.699 2190.36 837.578 2168.84 839.758 2129.57 840.375 2114.6 840.375 2114.29 832.898 2114.29 825.105 2114.29 795.168 2114.29 771.48 2114.6 756.195 2114.9 748.406 2142.66 748.406 2179.45 748.73 2199.09 752.457 2198.46 749.656 2198.15 745.605 2198.15 742.809 2198.15 740 2198.46 736.559 2199.09 733.762 2180.69 734.695 2161.98 735.316 2142.96 735.316 2123.96 735.316 2105.24 734.695 2086.22 733.762 2087.48 760.879 2088.72 788.008 2088.72 814.82V868.438" fill="#50565b"/>
<path transform="matrix(.1,0,0,-.1,0,105)" d="M2289.51 850.359C2295.14 849.109 2302.29 848.801 2310.4 848.801 2336 848.801 2369.98 859.398 2369.98 896.5 2369.98 929.238 2342.85 937.34 2321.64 937.34 2307.28 937.34 2297.92 936.402 2291.39 935.781 2290.45 913.031 2289.51 890.57 2289.51 868.121V850.359ZM2263.95 868.121C2263.95 894.941 2262.7 922.062 2261.46 948.883 2273.3 947.938 2285.14 947.32 2296.98 947.32 2308.84 947.32 2320.7 948.883 2332.57 948.883 2367.79 948.883 2397.41 936.719 2397.41 899.617 2397.41 859.398 2357.21 843.191 2333.5 840.066 2348.78 821.051 2400.84 754.023 2418.93 733.762 2412.7 734.703 2406.46 735.32 2400.22 735.32 2394.3 735.32 2388.06 734.703 2382.14 733.762 2369.67 752.773 2328.19 810.141 2301.36 837.262H2289.51V814.512C2289.51 787.691 2290.75 760.57 2292 733.762 2286.69 734.703 2281.72 735.32 2276.72 735.32 2271.74 735.32 2266.75 734.703 2261.46 733.762 2262.7 760.57 2263.95 787.691 2263.95 814.512V868.121" fill="#50565b"/>
<path transform="matrix(.1,0,0,-.1,0,105)" d="M2469.18 775.227C2476.05 760.566 2491.63 742.805 2518.45 742.805 2546.2 742.805 2563.03 763.066 2563.03 788.008 2563.03 845.375 2464.82 820.746 2464.82 894.004 2464.82 928.605 2491.01 952.934 2532.47 952.934 2552.12 952.934 2566.14 948.266 2578.61 938.277 2574.87 931.105 2572.7 923.938 2570.21 912.094H2566.46C2562.09 923.621 2552.74 941.395 2529.36 941.395 2505.97 941.395 2489.14 925.492 2489.14 902.734 2489.14 844.434 2587.34 868.754 2587.34 799.855 2587.34 761.816 2558.97 729.707 2510.97 729.707 2485.09 729.707 2470.44 738.754 2459.52 747.484 2463.26 757.133 2464.2 763.375 2465.44 775.227H2469.18" fill="#50565b"/>
<path transform="matrix(.1,0,0,-.1,0,105)" d="M2657.16 868.125C2657.16 894.945 2655.92 922.066 2654.66 948.879 2659.96 947.934 2664.95 947.312 2669.95 947.312 2674.93 947.312 2679.92 947.934 2685.21 948.879 2683.97 922.066 2682.72 894.945 2682.72 868.125V814.508C2682.72 787.695 2683.97 760.566 2685.21 733.754 2679.92 734.695 2674.93 735.312 2669.95 735.312 2664.95 735.312 2659.96 734.695 2654.66 733.754 2655.92 760.566 2657.16 787.695 2657.16 814.508V868.125" fill="#50565b"/>
<path transform="matrix(.1,0,0,-.1,0,105)" d="M1251.87 526.746C1258.4 525.188 1267.13 524.258 1273.99 524.258 1299.57 524.258 1332.29 533.918 1332.29 576.316 1332.29 611.855 1312.05 619.348 1279.93 619.348H1251.87V526.746ZM1226.29 550.129C1226.29 576.949 1225.04 604.066 1223.8 630.879 1233.77 629.945 1244.08 629.316 1254.05 629.316 1264.02 629.316 1283.97 630.879 1292.71 630.879 1311.42 630.879 1360.99 630.258 1360.99 578.188 1360.99 523.32 1307.06 512.715 1277.11 512.715 1267.76 512.715 1259.98 513.027 1251.87 513.652V496.504C1251.87 469.695 1253.12 442.566 1254.36 415.762 1249.06 416.699 1244.08 417.324 1239.09 417.324 1234.1 417.324 1229.11 416.699 1223.8 415.762 1225.04 442.566 1226.29 469.695 1226.29 496.504V550.129" fill="#50565b"/>
<path transform="matrix(.1,0,0,-.1,0,105)" d="M1512.38 623.391C1463.75 623.391 1426.33 592.527 1426.33 523.32 1426.33 454.109 1463.75 423.242 1512.38 423.242 1561.32 423.242 1598.75 454.109 1598.75 523.32 1598.75 592.527 1561.32 623.391 1512.38 623.391M1512.38 634.934C1581.28 634.934 1629.28 594.094 1629.28 523.32 1629.28 452.551 1581.28 411.699 1512.38 411.699 1443.79 411.699 1395.77 452.551 1395.77 523.32 1395.77 594.094 1443.79 634.934 1512.38 634.934" fill="#50565b"/>
<path transform="matrix(.1,0,0,-.1,0,105)" d="M1681.03 550.129C1681.03 576.949 1679.77 604.066 1678.53 630.879 1683.83 629.945 1688.82 629.316 1693.8 629.316 1698.8 629.316 1703.77 629.945 1709.08 630.879 1707.83 604.066 1706.59 576.949 1706.59 550.129 1706.59 497.754 1707.21 460.969 1707.53 430.41 1736.83 430.41 1762.39 430.41 1793.56 434.473 1792.63 431.348 1792 428.242 1792 425.117 1792 421.992 1792.63 418.879 1793.56 415.762 1774.56 416.699 1755.21 417.312 1736.2 417.312 1716.88 417.312 1697.85 416.699 1678.53 415.762 1679.77 442.566 1681.03 469.695 1681.03 496.504V550.129" fill="#50565b"/>
<path transform="matrix(.1,0,0,-.1,0,105)" d="M1850.61 550.129C1850.61 576.949 1849.37 604.066 1848.11 630.879 1853.4 629.945 1858.4 629.316 1863.39 629.316 1868.37 629.316 1873.36 629.945 1878.66 630.879 1877.42 604.066 1876.16 576.949 1876.16 550.129V496.504C1876.16 469.695 1877.42 442.566 1878.66 415.762 1873.36 416.699 1868.37 417.312 1863.39 417.312 1858.4 417.312 1853.4 416.699 1848.11 415.762 1849.37 442.566 1850.61 469.695 1850.61 496.504V550.129" fill="#50565b"/>
<path transform="matrix(.1,0,0,-.1,0,105)" d="M1996.49 550.129C1996.49 571.637 1996.18 593.152 1995.56 614.668 1974.05 614.668 1946.3 613.418 1928.85 611.234 1929.79 614.355 1930.41 617.789 1930.41 621.207 1930.41 624.324 1929.79 627.445 1928.85 630.879 1955.65 629.945 1982.47 629.316 2009.29 629.316 2036.09 629.316 2062.91 629.945 2089.72 630.879 2088.79 627.445 2088.15 624.324 2088.15 620.898 2088.15 617.789 2088.79 614.355 2089.72 611.234 2072.26 613.418 2044.5 614.668 2023 614.668 2022.37 593.152 2022.06 571.637 2022.06 550.129V496.504C2022.06 469.695 2023.32 442.566 2024.56 415.762 2019.26 416.699 2014.27 417.312 2009.29 417.312 2004.3 417.312 1999.31 416.699 1994 415.762 1995.25 442.566 1996.49 469.695 1996.49 496.504V550.129" fill="#50565b"/>
<path transform="matrix(.1,0,0,-.1,0,105)" d="M2470.21 429.48C2462.42 423.242 2436.54 411.699 2405.37 411.699 2339.6 411.699 2291.57 452.559 2291.57 523.312 2291.57 594.094 2339.6 634.934 2408.49 634.934 2435.3 634.934 2459.31 628.395 2476.15 620.59 2473.04 614.98 2470.85 602.82 2469.6 596.27L2467.73 595.652C2459 605.312 2437.8 623.395 2408.49 623.395 2359.54 623.395 2322.13 592.527 2322.13 523.312 2322.13 454.109 2359.54 423.242 2408.49 423.242 2438.11 423.242 2459.93 440.078 2471.78 449.109L2473.04 447.871 2470.21 429.48" fill="#50565b"/>
<path transform="matrix(.1,0,0,-.1,0,105)" d="M2705.61 411.699C2658.22 467.512 2601.47 527.367 2548.17 584.109 2547.85 572.578 2547.23 553.867 2547.23 520.82 2547.23 494.004 2548.47 428.223 2550.03 415.762 2546.61 416.699 2542.87 417.324 2539.12 417.324 2535.38 417.324 2531.64 416.699 2527.59 415.762 2530.09 430.41 2534.14 510.234 2534.14 551.379 2534.14 590.66 2534.14 620.898 2533.2 634.934H2538.19C2589 579.75 2657.9 504.609 2695.94 466.262 2695.94 522.07 2695.94 582.859 2693.46 630.879 2696.88 629.949 2700.62 629.32 2704.05 629.32 2707.48 629.32 2710.61 629.949 2714.02 630.879 2712.16 612.48 2709.04 550.754 2709.04 526.441 2709.04 494.641 2709.66 425.723 2709.97 411.699H2705.61" fill="#50565b"/>
<path transform="matrix(.1,0,0,-.1,0,105)" d="M2781.75 550.129C2781.75 576.949 2780.51 604.066 2779.26 630.879 2784.55 629.945 2789.54 629.316 2794.54 629.316 2799.52 629.316 2804.51 629.945 2809.81 630.879 2808.56 604.066 2807.31 576.949 2807.31 550.129V496.504C2807.31 469.695 2808.56 442.566 2809.81 415.762 2804.51 416.699 2799.52 417.312 2794.54 417.312 2789.54 417.312 2784.55 416.699 2779.26 415.762 2780.51 442.566 2781.75 469.695 2781.75 496.504V550.129" fill="#50565b"/>
<path transform="matrix(.1,0,0,-.1,0,105)" d="M3044.38 429.48C3036.59 423.242 3010.71 411.699 2979.53 411.699 2913.75 411.699 2865.73 452.559 2865.73 523.312 2865.73 594.094 2913.75 634.934 2982.65 634.934 3009.46 634.934 3033.48 628.395 3050.3 620.59 3047.18 614.98 3045.02 602.82 3043.76 596.27L3041.88 595.652C3033.15 605.312 3011.94 623.395 2982.65 623.395 2933.7 623.395 2896.3 592.527 2896.3 523.312 2896.3 454.109 2933.7 423.242 2982.65 423.242 3012.27 423.242 3034.09 440.078 3045.95 449.109L3047.18 447.871 3044.38 429.48" fill="#50565b"/>
<path transform="matrix(.1,0,0,-.1,0,105)" d="M1254.28 178.508C1254.28 156.379 1254.91 133.926 1256.16 112.422 1264.89 110.547 1281.1 109.297 1296.99 109.297 1342.82 109.297 1392.71 127.383 1392.71 209.688 1392.71 282.012 1355.3 299.785 1304.16 299.785 1285.76 299.785 1268.94 298.223 1256.16 296.66 1254.91 276.699 1254.28 254.57 1254.28 232.129V178.508ZM1228.71 232.129C1228.71 258.945 1227.47 286.062 1226.22 312.891 1241.81 311.941 1257.71 311.316 1273.3 311.316 1288.89 311.316 1304.79 312.891 1320.37 312.891 1393.33 312.891 1423.25 273.906 1423.25 209.688 1423.25 126.438 1359.04 97.7656 1309.78 97.7656 1295.74 97.7656 1282.03 99.3164 1268 99.3164 1253.96 99.3164 1240.25 98.6914 1226.22 97.7656 1227.47 124.57 1228.71 151.699 1228.71 178.508V232.129" fill="#50565b"/>
<path transform="matrix(.1,0,0,-.1,0,105)" d="M1462.42 232.441C1462.42 259.258 1461.18 286.387 1459.93 312.883 1478.64 311.941 1497.03 311.316 1515.74 311.316 1534.44 311.316 1552.84 311.941 1571.23 312.883 1570.6 309.746 1570.3 306.641 1570.3 303.516 1570.3 300.398 1570.6 297.285 1571.23 294.172 1545.05 296.035 1529.76 298.23 1489.24 298.23 1488.92 284.824 1487.99 273.906 1487.99 258.633 1487.99 242.422 1488.3 225.273 1488.3 217.48 1525.09 217.48 1545.66 219.043 1564.06 220.586 1563.44 217.48 1563.12 214.055 1563.12 210.938 1563.12 207.812 1563.44 204.707 1564.06 201.582 1542.55 203.762 1503.27 204.375 1488.3 204.375 1487.99 196.895 1487.99 189.109 1487.99 159.172 1487.99 135.48 1488.3 120.195 1488.61 112.41 1516.36 112.41 1553.15 112.715 1572.79 116.465 1572.17 113.66 1571.85 109.609 1571.85 106.816 1571.85 103.984 1572.17 100.566 1572.79 97.7539 1554.39 98.6914 1535.69 99.3164 1516.67 99.3164 1497.65 99.3164 1478.95 98.6914 1459.93 97.7539 1461.18 124.883 1462.42 152.012 1462.42 178.816V232.441" fill="#50565b"/>
<path transform="matrix(.1,0,0,-.1,0,105)" d="M1774.86 312.883C1780.17 311.941 1785.77 311.316 1791.08 311.316 1796.38 311.316 1801.99 311.941 1807.29 312.883 1825.68 257.695 1852.17 191.602 1878.38 128.621 1901.12 179.133 1936.05 272.043 1949.15 312.883 1952.88 311.941 1956.94 311.316 1960.67 311.316 1964.41 311.316 1968.47 311.941 1972.21 312.883 1939.79 241.172 1909.85 169.465 1882.43 97.7539 1878.99 98.6992 1875.57 99.3164 1872.14 99.3164 1868.7 99.3164 1864.65 98.6992 1861.86 97.7539 1843.14 149.199 1805.12 241.172 1774.86 312.883" fill="#50565b"/>
<path transform="matrix(.1,0,0,-.1,0,105)" d="M2210.32 232.129C2210.32 258.945 2209.07 286.074 2207.83 312.883 2213.13 311.934 2218.12 311.316 2223.1 311.316 2228.1 311.316 2233.09 311.934 2238.41 312.883 2237.14 286.074 2235.91 258.945 2235.91 232.129 2235.91 179.766 2236.52 142.969 2236.85 112.402 2266.16 112.402 2291.73 112.402 2322.9 116.465 2321.96 113.352 2321.34 110.234 2321.34 107.109 2321.34 104.004 2321.96 100.879 2322.9 97.7539 2303.89 98.6992 2284.55 99.3164 2265.53 99.3164 2246.21 99.3164 2227.16 98.6992 2207.83 97.7539 2209.07 124.57 2210.32 151.699 2210.32 178.516V232.129" fill="#50565b"/>
<path transform="matrix(.1,0,0,-.1,0,105)" d="M2718.09 93.7109C2670.7 149.512 2613.96 209.375 2560.64 266.113 2560.34 254.57 2559.72 235.859 2559.72 202.832 2559.72 176.016 2560.97 110.234 2562.52 97.7656 2559.09 98.6914 2555.35 99.3164 2551.61 99.3164 2547.87 99.3164 2544.12 98.6914 2540.07 97.7656 2542.57 112.422 2546.62 192.227 2546.62 233.379 2546.62 272.668 2546.62 302.891 2545.69 316.926H2550.67C2601.49 261.746 2670.4 186.621 2708.43 148.262 2708.43 204.062 2708.43 264.863 2705.94 312.871 2709.37 311.941 2713.11 311.316 2716.52 311.316 2719.96 311.316 2723.08 311.941 2726.51 312.871 2724.64 294.492 2721.52 232.754 2721.52 208.438 2721.52 176.641 2722.14 107.734 2722.46 93.7109H2718.09" fill="#50565b"/>
<path transform="matrix(.1,0,0,-.1,0,105)" d="M2950.93 111.484C2943.13 105.234 2917.26 93.7109 2886.08 93.7109 2820.3 93.7109 2772.29 134.551 2772.29 205.312 2772.29 276.094 2820.3 316.934 2889.2 316.934 2916.01 316.934 2940.01 310.391 2956.85 302.59 2953.73 296.973 2951.56 284.824 2950.3 278.27L2948.43 277.645C2939.7 287.305 2918.5 305.391 2889.2 305.391 2840.25 305.391 2802.84 274.531 2802.84 205.312 2802.84 136.113 2840.25 105.234 2889.2 105.234 2918.82 105.234 2940.63 122.078 2952.49 131.113L2953.73 129.863 2950.93 111.484" fill="#50565b"/>
<path transform="matrix(.1,0,0,-.1,0,105)" d="M3005.54 232.129C3005.54 258.945 3004.28 286.074 3003.04 312.883 3008.33 311.934 3013.33 311.316 3018.31 311.316 3023.3 311.316 3028.28 311.934 3033.59 312.883 3032.33 286.074 3031.09 258.945 3031.09 232.129V178.516C3031.09 151.699 3032.33 124.57 3033.59 97.7539 3028.28 98.6992 3023.3 99.3164 3018.31 99.3164 3013.33 99.3164 3008.33 98.6992 3003.04 97.7539 3004.28 124.57 3005.54 151.699 3005.54 178.516V232.129" fill="#50565b"/>
<path transform="matrix(.1,0,0,-.1,0,105)" d="M3126.14 442.527C3126.14 456.055 3137.11 467.012 3150.63 467.012 3164.15 467.012 3175.12 456.055 3175.12 442.527 3175.12 429.004 3164.15 418.035 3150.63 418.035 3137.11 418.035 3126.14 429.004 3126.14 442.527" fill="#50565b"/>
<path transform="matrix(.1,0,0,-.1,0,105)" d="M3210.69 501.926 3171.73 595.465 3131.81 501.926C3118.72 469.812 3106.88 438.008 3101.57 418.379 3097.52 419.297 3093.78 419.934 3090.04 419.934 3086.29 419.934 3082.56 419.297 3078.5 418.379 3111.87 491.328 3144.29 563.977 3176.08 637.543H3182.01C3212.55 565.215 3259.34 451.719 3275.85 418.379 3270.24 419.297 3264.93 419.934 3259.34 419.934 3253.72 419.934 3248.43 419.297 3242.81 418.379 3236.88 439.883 3221.9 474.18 3210.69 501.926" fill="#50565b"/>
<path transform="matrix(.1,0,0,-.1,0,105)" d="M3127.17 124.18C3127.17 137.703 3138.13 148.672 3151.65 148.672 3165.18 148.672 3176.14 137.703 3176.14 124.18 3176.14 110.664 3165.18 99.6953 3151.65 99.6953 3138.13 99.6953 3127.17 110.664 3127.17 124.18" fill="#50565b"/>
<path transform="matrix(.1,0,0,-.1,0,105)" d="M3211.72 183.586 3172.75 277.109 3132.84 183.586C3119.75 151.477 3107.9 119.668 3102.6 100.039 3098.54 100.957 3094.81 101.582 3091.06 101.582 3087.31 101.582 3083.59 100.957 3079.52 100.039 3112.89 172.988 3145.31 245.637 3177.11 319.199H3183.04C3213.59 246.875 3260.36 133.379 3276.87 100.039 3271.27 100.957 3265.97 101.582 3260.36 101.582 3254.75 101.582 3249.44 100.957 3243.84 100.039 3237.9 121.543 3222.94 155.84 3211.72 183.586" fill="#50565b"/>
<path transform="matrix(.1,0,0,-.1,0,105)" d="M2018.7 124.18C2018.7 137.703 2029.68 148.672 2043.19 148.672 2056.71 148.672 2067.69 137.703 2067.69 124.18 2067.69 110.664 2056.71 99.6953 2043.19 99.6953 2029.68 99.6953 2018.7 110.664 2018.7 124.18" fill="#50565b"/>
<path transform="matrix(.1,0,0,-.1,0,105)" d="M2103.26 183.586 2064.3 277.109 2024.38 183.586C2011.29 151.477 1999.43 119.668 1994.14 100.039 1990.09 100.957 1986.35 101.582 1982.61 101.582 1978.86 101.582 1975.12 100.957 1971.06 100.039 2004.43 172.988 2036.85 245.637 2068.64 319.199H2074.58C2105.12 246.875 2151.89 133.379 2168.41 100.039 2162.81 100.957 2157.5 101.582 2151.89 101.582 2146.28 101.582 2140.99 100.957 2135.37 100.039 2129.44 121.543 2114.47 155.84 2103.26 183.586" fill="#50565b"/>
<path transform="matrix(.1,0,0,-.1,0,105)" d="M2805.78 865.723C2805.78 887.23 2805.47 908.754 2804.84 930.266 2783.34 930.266 2755.59 929.016 2738.13 926.836 2739.07 929.949 2739.7 933.383 2739.7 936.801 2739.7 939.922 2739.07 943.031 2738.13 946.477 2764.94 945.531 2791.76 944.91 2818.57 944.91 2845.38 944.91 2872.2 945.531 2898.99 946.477 2898.07 943.031 2897.44 939.922 2897.44 936.492 2897.44 933.383 2898.07 929.949 2898.99 926.836 2881.54 929.016 2853.79 930.266 2832.29 930.266 2831.67 908.754 2831.35 887.23 2831.35 865.723V812.105C2831.35 785.293 2832.61 758.164 2833.85 731.352 2828.54 732.297 2823.55 732.914 2818.57 732.914 2813.58 732.914 2808.58 732.297 2803.29 731.352 2804.54 758.164 2805.78 785.293 2805.78 812.105V865.723" fill="#50565b"/>
<path transform="matrix(.1,0,0,-.1,0,105)" d="M3182.63 865.723C3182.63 887.23 3182.31 908.754 3181.69 930.266 3160.19 930.266 3132.43 929.016 3114.98 926.836 3115.92 929.949 3116.54 933.383 3116.54 936.801 3116.54 939.922 3115.92 943.031 3114.98 946.477 3141.79 945.531 3168.6 944.91 3195.42 944.91 3222.23 944.91 3249.04 945.531 3275.85 946.477 3274.92 943.031 3274.29 939.922 3274.29 936.492 3274.29 933.383 3274.92 929.949 3275.85 926.836 3258.39 929.016 3230.63 930.266 3209.13 930.266 3208.51 908.754 3208.19 887.23 3208.19 865.723V812.105C3208.19 785.293 3209.44 758.164 3210.69 731.352 3205.39 732.297 3200.4 732.914 3195.42 732.914 3190.42 732.914 3185.44 732.297 3180.14 731.352 3181.39 758.164 3182.63 785.293 3182.63 812.105V865.723" fill="#50565b"/>
<path transform="matrix(.1,0,0,-.1,0,105)" d="M2400.85 297.793H2425.17L2456.8 297.148C2466.29 296.531 2475.72 295.566 2485.23 293.691 2484.91 296.848 2484.27 299.988 2484.27 303.145 2484.27 306.27 2484.91 309.102 2485.23 312.559H2373.05V98.4766H2487.13C2486.79 101.633 2486.16 104.746 2486.16 107.898 2486.16 111.055 2486.79 113.887 2487.13 117.355 2477.34 115.77 2467.84 114.824 2458.05 114.512 2439.09 113.887 2420.13 112.617 2400.85 113.254V205.059H2449.82C2459.33 205.059 2468.47 203.789 2477.97 203.477 2477.66 206.926 2477 209.766 2477 212.285 2477 215.098 2477.66 217.949 2477.97 220.449 2468.47 220.137 2459.33 218.887 2449.82 218.887H2400.85V297.793ZM2453.62 330.488 2413.8 369.773C2410.01 373.547 2406.22 377.93 2401.8 381.086 2400.51 382.344 2399.27 382.656 2397.69 383.281 2392.31 384.531 2386.61 381.719 2384.74 376.699 2383.79 373.848 2383.79 371.047 2385.05 368.203 2386.93 365.059 2390.09 363.477 2392.94 361.289L2442.56 330.488H2453.62" fill="#50565b" fill-rule="evenodd"/>
<path transform="matrix(.1,0,0,-.1,0,105)" d="M2163.04 614.727H2187.35L2218.97 614.117C2228.46 613.496 2237.92 612.52 2247.42 610.668 2247.1 613.801 2246.46 616.957 2246.46 620.105 2246.46 623.227 2247.1 626.062 2247.42 629.516H2135.24V415.43H2249.32C2248.99 418.574 2248.37 421.711 2248.37 424.863 2248.37 428.02 2248.99 430.852 2249.32 434.316 2239.53 432.727 2230.02 431.785 2220.21 431.477 2201.28 430.852 2182.31 429.57 2163.04 430.188V522.008H2211.99C2221.53 522.008 2230.66 520.758 2240.16 520.449 2239.85 523.895 2239.18 526.719 2239.18 529.219 2239.18 532.047 2239.85 534.887 2240.16 537.398 2230.66 537.09 2221.53 535.84 2211.99 535.84H2163.04V614.727ZM2215.83 647.438 2175.98 686.738C2172.2 690.5 2168.42 694.926 2163.99 698.047 2162.71 699.309 2161.46 699.609 2159.87 700.238 2154.49 701.5 2148.81 698.688 2146.92 693.648 2145.97 690.816 2145.97 688 2147.23 685.156 2149.11 682.016 2152.29 680.43 2155.12 678.246L2204.76 647.438H2215.83" fill="#50565b" fill-rule="evenodd"/>
<path transform="matrix(.1,0,0,-.1,0,105)" d="M3003.14 952.93H3009.46L3099.01 745.602 3104.39 734.293C3099.01 734.91 3093.66 735.23 3088.28 735.23 3082.63 735.23 3076.63 735.23 3070.95 734.293L3068.12 743.379 3053.91 781.031 3038.49 818.043 2998.8 912.699 2958.36 818.043C2947.34 790.449 2935.99 762.844 2927.46 734.293 2923.99 735.23 2920.21 735.23 2916.42 735.23 2912.65 735.23 2908.54 734.91 2904.77 734.293L3003.14 952.93ZM2957.71 759.895C2957.71 773.391 2968.73 784.352 2982.29 784.352 2995.91 784.352 3006.88 773.391 3006.88 759.895 3006.88 746.383 2995.91 735.43 2982.29 735.43 2968.73 735.43 2957.71 746.383 2957.71 759.895" fill="#50565b"/>
</svg>
