<svg xmlns="http://www.w3.org/2000/svg" xmlns:xlink="http://www.w3.org/1999/xlink" xmlns:inkscape="http://www.inkscape.org/namespaces/inkscape" version="1.1" width="310" height="120" viewBox="0 0 310 120">
<path transform="matrix(.1,0,0,-.1,0,120)" d="M2134.76 926.992C2134.32 937.488 2133.67 945.094 2132.81 949.762 2131.94 954.434 2130.14 960.234 2127.41 967.145 2122.95 978.062 2115.62 986.781 2105.41 993.254 2095.18 999.723 2084.1 1002.97 2072.16 1002.97 2059.92 1002.97 2048.85 999.762 2038.92 993.363 2028.98 986.953 2021.66 978.215 2016.9 967.145 2014.16 960.234 2012.33 954.188 2011.4 949.004 2010.46 943.832 2009.78 936.484 2009.34 926.992H2134.76ZM2157.41 908.863H2009.34C2009.34 881.801 2015.28 861.055 2027.16 846.594 2039.02 832.133 2056.17 824.895 2078.63 824.895 2091 824.895 2101.58 826.832 2110.36 830.723 2119.14 834.613 2128.2 841.23 2137.56 850.582L2154.39 837.203C2143.01 825.828 2131.5 817.562 2119.92 812.375 2108.32 807.203 2094.09 804.613 2077.24 804.613 2057.65 804.613 2041.1 808.738 2027.64 817.02 2014.16 825.293 2003.94 837.562 1996.95 853.824 1989.96 870.082 1986.46 890.082 1986.46 913.832 1986.46 931.094 1988.41 946.441 1992.3 959.902 1996.19 973.363 2001.78 984.691 2009.05 993.902 2016.33 1003.1 2025.37 1010.23 2036.17 1015.27 2046.98 1020.3 2058.94 1022.82 2072.05 1022.82 2085.45 1022.82 2097.33 1020.52 2107.71 1015.92 2118.09 1011.31 2127.01 1004.51 2134.49 995.523 2141.99 986.523 2147.69 975.621 2151.58 962.82 2155.47 950.012 2157.41 935.41 2157.41 919.004V908.863" fill="#1a171b"/>
<path transform="matrix(.1,0,0,-.1,0,120)" d="M2306.35 807.195H2286.87C2276.04 807.195 2266.73 809.566 2258.94 814.316 2251.14 819.078 2245.26 825.613 2241.29 833.965 2237.32 842.305 2235.33 851.949 2235.33 862.875V1003.4H2206.2V1020.24H2235.33V1088.44H2258.22V1020.24H2306.35V1003.4H2258.22V862.445C2258.22 838.848 2269.08 827.047 2290.81 827.047H2306.35V807.195" fill="#1a171b"/>
<path transform="matrix(.1,0,0,-.1,0,120)" d="M2524.79 867.852C2524.79 855.043 2521.29 843.863 2514.3 834.293 2507.3 824.723 2497.37 817.375 2484.47 812.262 2471.58 807.172 2456.56 804.613 2439.41 804.613 2403.11 804.613 2374.3 814.75 2352.97 835.043L2368.57 850.582C2385.14 833.176 2408.48 824.465 2438.58 824.465 2459.34 824.465 2475.21 828.09 2486.23 835.359 2497.26 842.633 2502.76 853.461 2502.76 867.852 2502.76 878.785 2499.45 887.133 2492.83 892.891 2486.22 898.645 2475.93 902.172 2461.97 903.473L2426.57 906.703C2383.69 910.152 2362.26 928.723 2362.26 962.395 2362.26 974.473 2365.39 985.094 2371.65 994.234 2377.91 1003.36 2386.82 1010.41 2398.34 1015.38 2409.87 1020.34 2423.43 1022.82 2438.98 1022.82 2453.97 1022.82 2467.88 1020.85 2480.7 1016.89 2493.53 1012.93 2504.55 1007.42 2513.78 1000.38L2498.66 985.266C2482.27 997.355 2462.4 1003.4 2439.09 1003.4 2421.53 1003.4 2408.09 999.805 2398.73 992.613 2389.38 985.41 2384.7 975.344 2384.7 962.395 2384.7 951.16 2388.18 942.699 2395.17 937.031 2402.15 931.344 2413.12 927.852 2428.09 926.562L2462.4 923.531C2482.27 921.812 2497.62 916.914 2508.49 908.863 2519.34 900.801 2524.79 887.133 2524.79 867.852" fill="#1a171b"/>
<path transform="matrix(.1,0,0,-.1,0,120)" d="M2639.34 807.195H2581.43V1037.5H2639.34V807.195ZM2639.34 1076.41H2581.43V1123.27H2639.34V1076.41" fill="#1a171b"/>
<path transform="matrix(.1,0,0,-.1,0,120)" d="M2894.82 807.195H2836.93V946.445C2836.93 960.879 2832.82 971.785 2824.61 979.145 2817.88 985.336 2809.38 988.438 2799.13 988.438 2788.58 988.438 2779.94 985.336 2773.2 979.145 2765 971.785 2760.9 960.879 2760.9 946.445V807.195H2703.43V1037.5H2759.57V1016.29C2774.61 1032.2 2793.75 1040.16 2817.04 1040.16 2839.73 1040.16 2857.85 1033.37 2871.41 1019.83 2887.02 1004.2 2894.82 982.398 2894.82 954.395V807.195" fill="#1a171b"/>
<path transform="matrix(.1,0,0,-.1,0,120)" d="M3063.7 987.109H3021.7V807.195H2963.8V987.109H2939.92V1030.87H2963.8V1059.61C2963.8 1077.58 2969.1 1092.61 2979.71 1104.7 2992.09 1118.55 3009.16 1125.47 3030.98 1125.47H3063.7V1076.85H3041.39C3028.26 1076.85 3021.7 1069.92 3021.7 1056.07V1030.87H3063.7V987.109" fill="#1a171b"/>
<path transform="matrix(.1,0,0,-.1,0,120)" d="M1673.9 1183.65C1663.69 1183.65 1652.85 1175.7 1649.79 1165.95L1589.34 973.961C1586.29 964.234 1575.43 956.27 1565.23 956.27H1473.43C1463.23 956.27 1457.77 948.441 1461.28 938.863L1526.09 763.012C1529.6 753.441 1540.83 745.602 1551.04 745.602H1615.72C1625.92 745.602 1637.15 753.441 1640.66 763.012L1788.87 1166.25C1792.38 1175.82 1786.91 1183.65 1776.72 1183.65" fill="#d50066"/>
<path transform="matrix(.1,0,0,-.1,0,120)" d="M1492.5 1183.65C1502.7 1183.65 1513.57 1175.7 1516.68 1165.99L1541.76 1087.63C1544.86 1077.91 1539.06 1069.96 1528.86 1069.96H1431.54C1421.35 1069.96 1410.12 1077.79 1406.58 1087.36L1377.52 1166.25C1374 1175.82 1379.45 1183.65 1389.65 1183.65" fill="#d50066"/>
<path transform="matrix(.1,0,0,-.1,0,120)" d="M1274.25 1183.65C1284.46 1183.65 1295.33 1175.7 1298.44 1165.99L1323.52 1087.63C1326.62 1077.91 1320.82 1069.96 1310.62 1069.96H1213.31C1203.11 1069.96 1191.88 1077.79 1188.35 1087.36L1159.28 1166.25C1155.75 1175.82 1161.21 1183.65 1171.41 1183.65" fill="#d50066"/>
<path transform="matrix(.1,0,0,-.1,0,120)" d="M638.406 430.93H563.551V551.543H638.406V540.012H576.418V497.5H629.258V485.977H576.418V442.441H638.406V430.93" fill="#9b9c9e"/>
<path transform="matrix(.1,0,0,-.1,0,120)" d="M723.27 455.32C723.27 447.41 720.191 441.199 714.043 436.699 707.883 432.168 699.672 429.91 689.391 429.91 674.941 429.91 663.531 433.906 655.172 441.934L663.312 450.078C669.398 443.633 678.051 440.41 689.23 440.41 704 440.41 711.41 445.32 711.41 455.137 711.41 462.488 706.781 466.555 697.52 467.344L683.801 468.535C667.211 470 658.902 477.449 658.902 490.898 658.902 498.34 661.762 504.277 667.461 508.672 673.141 513.066 680.531 515.281 689.562 515.281 702.211 515.281 712.203 512.285 719.543 506.309L711.582 498.34C705.82 502.742 698.434 504.949 689.391 504.949 676.973 504.949 670.762 500.371 670.762 491.23 670.762 484.004 675.609 479.934 685.332 479.031L698.711 477.852C715.082 476.367 723.27 468.867 723.27 455.32" fill="#9b9c9e"/>
<path transform="matrix(.1,0,0,-.1,0,120)" d="M806.777 442.273C802.477 437.645 798.305 434.426 794.238 432.617 790.176 430.82 785.203 429.91 779.336 429.91 768.379 429.91 759.629 433.469 753.074 440.586 745.969 448.145 742.406 458.809 742.406 472.598 742.406 486.367 745.969 497.051 753.074 504.609 759.629 511.719 768.379 515.281 779.336 515.281 785.203 515.281 790.176 514.375 794.238 512.559 798.305 510.762 802.477 507.539 806.777 502.91L798.477 495.129C792.828 501.328 786.445 504.441 779.336 504.441 770.977 504.441 764.535 501.27 760.027 494.961 756.406 489.871 754.609 482.422 754.609 472.598 754.609 462.773 756.406 455.32 760.027 450.234 764.535 443.918 770.977 440.762 779.336 440.762 786.328 440.762 792.715 443.918 798.477 450.234L806.777 442.273" fill="#9b9c9e"/>
<path transform="matrix(.1,0,0,-.1,0,120)" d="M881.465 472.598C881.465 485.352 879.27 493.938 874.863 498.34 870.805 502.402 865.723 504.453 859.613 504.453 853.633 504.453 848.613 502.402 844.555 498.34 840.023 493.828 837.773 485.254 837.773 472.598 837.773 459.941 840.023 451.367 844.555 446.848 848.613 442.793 853.633 440.742 859.613 440.742 865.723 440.742 870.883 442.871 875.117 447.102 879.355 451.34 881.465 459.844 881.465 472.598M893.676 472.598C893.676 457.363 890.281 446.277 883.496 439.395 877.297 433.074 869.336 429.902 859.613 429.902 849.918 429.902 841.953 433.074 835.746 439.395 828.965 446.277 825.574 457.363 825.574 472.598 825.574 487.832 828.965 498.906 835.746 505.781 841.953 512.117 849.918 515.293 859.613 515.293 869.336 515.293 877.297 512.117 883.496 505.781 890.281 498.906 893.676 487.832 893.676 472.598" fill="#9b9c9e"/>
<path transform="matrix(.1,0,0,-.1,0,120)" d="M949.395 430.93H940.586C933.586 430.93 928.316 432.961 924.758 437.012 921.195 441.094 919.414 446.453 919.414 453.113V551.543H931.617V453.633C931.617 445.496 935.336 441.426 942.793 441.426H949.395V430.93" fill="#9b9c9e"/>
<path transform="matrix(.1,0,0,-.1,0,120)" d="M1017.5 460.398V469.375H994.109C981.688 469.375 975.48 464.453 975.48 454.641 975.48 445.156 981.859 440.41 994.617 440.41 1003.2 440.41 1009.41 442.266 1013.25 446.016 1016.07 448.711 1017.5 453.516 1017.5 460.398M1029.67 430.93H1017.5V438.887C1011.5 432.898 1003.49 429.91 993.438 429.91 982.711 429.91 974.848 432.449 969.895 437.527 965.707 441.836 963.617 447.473 963.617 454.473 963.617 461.914 966.129 467.793 971.152 472.09 976.172 476.387 983.27 478.535 992.422 478.535H1017.5V486.484C1017.5 498.684 1010.37 504.785 996.145 504.785 986.66 504.785 979.648 501.621 975.141 495.293L966.84 502.922C970.449 507.551 974.629 510.82 979.371 512.734 983.66 514.434 989.301 515.273 996.316 515.273 1018.55 515.273 1029.67 506.016 1029.67 487.5V430.93" fill="#9b9c9e"/>
<path transform="matrix(.1,0,0,-.1,0,120)" d="M1173.83 540.012H1138.94V430.93H1126.06V540.012H1091.15V551.523H1173.83V540.012" fill="#9b9c9e"/>
<path transform="matrix(.1,0,0,-.1,0,120)" d="M1232.77 531.543H1221.59L1203.3 557.461H1217.86L1232.77 531.543ZM1245.81 478.523C1245.48 484.395 1244.63 489.023 1243.27 492.41 1239.78 500.77 1233.28 504.949 1223.79 504.949 1214.29 504.949 1207.81 500.77 1204.31 492.41 1202.96 489.023 1202.11 484.395 1201.77 478.523H1245.81ZM1258 469.375H1201.77C1201.77 460.281 1203.88 453.242 1208.13 448.242 1212.36 443.254 1218.42 440.754 1226.32 440.754 1234.58 440.754 1241.86 443.848 1248.18 450.078L1256.48 442.781C1251.95 438.27 1247.61 435.059 1243.43 433.125 1238.58 430.977 1232.77 429.91 1225.99 429.91 1214.59 429.91 1205.78 433.359 1199.58 440.242 1192.92 447.473 1189.58 458.254 1189.58 472.598 1189.58 486.035 1192.61 496.504 1198.72 504.016 1204.82 511.523 1213.16 515.281 1223.79 515.281 1234.52 515.281 1242.92 511.68 1248.95 504.441 1255 497.207 1258 487.395 1258 474.973V469.375" fill="#9b9c9e"/>
<path transform="matrix(.1,0,0,-.1,0,120)" d="M1343.72 442.273C1339.42 437.645 1335.25 434.426 1331.17 432.617 1327.12 430.82 1322.15 429.91 1316.28 429.91 1305.31 429.91 1296.57 433.469 1290.02 440.586 1282.91 448.145 1279.35 458.809 1279.35 472.598 1279.35 486.367 1282.91 497.051 1290.02 504.609 1296.57 511.719 1305.31 515.281 1316.28 515.281 1322.15 515.281 1327.12 514.375 1331.17 512.559 1335.25 510.762 1339.42 507.539 1343.72 502.91L1335.42 495.129C1329.77 501.328 1323.39 504.441 1316.28 504.441 1307.92 504.441 1301.48 501.27 1296.97 494.961 1293.35 489.871 1291.55 482.422 1291.55 472.598 1291.55 462.773 1293.35 455.32 1296.97 450.234 1301.48 443.918 1307.92 440.762 1316.28 440.762 1323.28 440.762 1329.65 443.918 1335.42 450.234L1343.72 442.273" fill="#9b9c9e"/>
<path transform="matrix(.1,0,0,-.1,0,120)" d="M1432.48 430.93H1420.28V482.258C1420.28 497.031 1413.45 504.453 1399.78 504.453 1393.35 504.453 1388.29 502.52 1384.63 498.672 1380.96 494.844 1379.12 489.363 1379.12 482.258V430.93H1366.92V514.27H1379.12V505.117C1385.11 511.895 1392.91 515.293 1402.5 515.293 1411.42 515.293 1418.52 512.688 1423.83 507.488 1429.6 501.848 1432.48 494.102 1432.48 484.285V430.93" fill="#9b9c9e"/>
<path transform="matrix(.1,0,0,-.1,0,120)" d="M1474.32 430.93H1462.12V514.27H1474.32V430.93ZM1475.17 537.98H1461.45V551.699H1475.17V537.98" fill="#9b9c9e"/>
<path transform="matrix(.1,0,0,-.1,0,120)" d="M1564.77 442.273C1560.47 437.645 1556.29 434.426 1552.23 432.617 1548.16 430.82 1543.19 429.91 1537.32 429.91 1526.37 429.91 1517.62 433.469 1511.06 440.586 1503.96 448.145 1500.41 458.809 1500.41 472.598 1500.41 486.367 1503.96 497.051 1511.06 504.609 1517.62 511.719 1526.37 515.281 1537.32 515.281 1543.19 515.281 1548.16 514.375 1552.23 512.559 1556.29 510.762 1560.47 507.539 1564.77 502.91L1556.46 495.129C1550.82 501.328 1544.43 504.441 1537.32 504.441 1528.96 504.441 1522.52 501.27 1518.02 494.961 1514.39 489.871 1512.6 482.422 1512.6 472.598 1512.6 462.773 1514.39 455.32 1518.02 450.234 1522.52 443.918 1528.96 440.762 1537.32 440.762 1544.33 440.762 1550.71 443.918 1556.46 450.234L1564.77 442.273" fill="#9b9c9e"/>
<path transform="matrix(.1,0,0,-.1,0,120)" d="M1635.41 460.398V469.375H1612.02C1599.6 469.375 1593.39 464.453 1593.39 454.641 1593.39 445.156 1599.77 440.41 1612.53 440.41 1621.11 440.41 1627.32 442.266 1631.15 446.016 1633.98 448.711 1635.41 453.516 1635.41 460.398M1647.59 430.93H1635.41V438.887C1629.41 432.898 1621.41 429.91 1611.35 429.91 1600.63 429.91 1592.75 432.449 1587.79 437.527 1583.61 441.836 1581.52 447.473 1581.52 454.473 1581.52 461.914 1584.04 467.793 1589.07 472.09 1594.09 476.387 1601.17 478.535 1610.33 478.535H1635.41V486.484C1635.41 498.684 1628.28 504.785 1614.04 504.785 1604.57 504.785 1597.57 501.621 1593.05 495.293L1584.75 502.922C1588.36 507.551 1592.54 510.82 1597.29 512.734 1601.57 514.434 1607.23 515.273 1614.23 515.273 1636.46 515.273 1647.59 506.016 1647.59 487.5V430.93" fill="#9b9c9e"/>
<path transform="matrix(.1,0,0,-.1,0,120)" d="M125.352 255.293C125.352 244.785 121.562 236.453 114.004 230.305 106.43 224.148 96.332 221.074 83.6797 221.074 66.7539 221.074 52.9727 226.367 42.3516 236.992L51.1523 245.801C59.9688 236.992 70.9219 232.578 84.0234 232.578 92.832 232.578 99.7695 234.57 104.855 238.516 109.934 242.473 112.48 247.949 112.48 254.949 112.48 261.609 110.562 266.641 106.723 270.039 103.672 272.734 98.4219 274.668 90.9727 275.781L76.9062 277.988C56.0117 281.27 45.5625 291.816 45.5625 309.668 45.5625 319.934 49.043 328.184 55.9727 334.395 62.9297 340.598 72.3359 343.711 84.1914 343.711 98.3008 343.711 110.273 339.297 120.102 330.508L111.801 322.188C104.234 329.082 94.8633 332.539 83.6797 332.539 75.7734 332.539 69.5586 330.508 65.0547 326.426 60.5312 322.363 58.2734 316.941 58.2734 310.156 58.2734 304.07 60.1406 299.414 63.8711 296.191 67.5938 292.988 72.9531 290.801 79.9531 289.668L93.1641 287.637C102.992 286.172 110.332 283.359 115.18 279.18 121.953 273.418 125.352 265.449 125.352 255.293" fill="#9b9c9e"/>
<path transform="matrix(.1,0,0,-.1,0,120)" d="M214.785 222.09H202.582V231.406C196.625 224.52 188.793 221.074 179.125 221.074 170.117 221.074 162.965 223.672 157.676 228.867 152.055 234.395 149.234 242.188 149.234 252.246V305.43H161.426V254.102C161.426 239.316 168.203 231.914 181.754 231.914 188.191 231.914 193.277 233.828 196.996 237.676 200.73 241.504 202.582 246.992 202.582 254.102V305.43H214.785V222.09" fill="#9b9c9e"/>
<path transform="matrix(.1,0,0,-.1,0,120)" d="M299.141 263.762C299.141 273.574 297.961 280.918 295.59 285.781 292.301 292.324 286.555 295.605 278.312 295.605 270.059 295.605 264.301 292.324 261.02 285.781 258.539 280.918 257.301 273.574 257.301 263.762 257.301 253.945 258.539 246.594 261.02 241.738 264.301 235.195 270.059 231.914 278.312 231.914 286.555 231.914 292.301 235.195 295.59 241.738 297.961 246.594 299.141 253.945 299.141 263.762M311.332 263.762C311.332 246.934 307.949 235.137 301.172 228.359 296.316 223.496 289.539 221.074 280.852 221.074 270.801 221.074 262.949 224.688 257.301 231.914V184.82H245.113V305.43H257.301V295.605C262.832 302.832 270.68 306.445 280.852 306.445 289.539 306.445 296.316 304.004 301.172 299.16 307.949 292.383 311.332 280.586 311.332 263.762" fill="#9b9c9e"/>
<path transform="matrix(.1,0,0,-.1,0,120)" d="M389.082 269.688C388.75 275.559 387.91 280.188 386.543 283.574 383.043 291.934 376.555 296.113 367.062 296.113 357.582 296.113 351.086 291.934 347.594 283.574 346.23 280.188 345.383 275.559 345.055 269.688H389.082ZM401.285 260.535H345.055C345.055 251.445 347.164 244.414 351.391 239.414 355.621 234.414 361.703 231.914 369.613 231.914 377.852 231.914 385.121 235.02 391.449 241.23L399.75 233.945C395.234 229.434 390.895 226.211 386.715 224.285 381.852 222.148 376.039 221.074 369.273 221.074 357.859 221.074 349.055 224.512 342.832 231.406 336.184 238.633 332.852 249.414 332.852 263.762 332.852 277.195 335.902 287.668 341.992 295.176 348.09 302.688 356.441 306.445 367.062 306.445 377.793 306.445 386.172 302.832 392.211 295.605 398.262 288.379 401.285 278.555 401.285 266.133V260.535" fill="#9b9c9e"/>
<path transform="matrix(.1,0,0,-.1,0,120)" d="M482.754 298.652 473.785 289.504C469.711 293.574 464.91 295.605 459.387 295.605 453.395 295.605 448.562 293.477 444.902 289.258 441.234 285.02 439.395 279.688 439.395 273.242V222.09H427.191V305.43H439.395V295.266C444.242 302.715 452.047 306.445 462.766 306.445 470.895 306.445 477.555 303.848 482.754 298.652" fill="#9b9c9e"/>
<path transform="matrix(.1,0,0,-.1,0,120)" d="M510.699 222.09H498.492V305.43H510.699V222.09ZM511.547 329.141H497.832V342.859H511.547V329.141" fill="#9b9c9e"/>
<path transform="matrix(.1,0,0,-.1,0,120)" d="M592.852 263.762C592.852 276.504 590.641 285.098 586.25 289.504 582.172 293.574 577.102 295.605 570.992 295.605 565 295.605 560 293.574 555.934 289.504 551.402 284.988 549.16 276.406 549.16 263.762 549.16 251.113 551.402 242.527 555.934 238.008 560 233.945 565 231.914 570.992 231.914 577.102 231.914 582.262 234.023 586.492 238.262 590.73 242.5 592.852 250.996 592.852 263.762M605.055 263.762C605.055 248.516 601.66 237.441 594.883 230.566 588.672 224.238 580.715 221.074 570.992 221.074 561.293 221.074 553.34 224.238 547.125 230.566 540.332 237.441 536.953 248.516 536.953 263.762 536.953 279.004 540.332 290.066 547.125 296.953 553.34 303.281 561.293 306.445 570.992 306.445 580.715 306.445 588.672 303.281 594.883 296.953 601.66 290.066 605.055 279.004 605.055 263.762" fill="#9b9c9e"/>
<path transform="matrix(.1,0,0,-.1,0,120)" d="M686.688 298.652 677.719 289.504C673.648 293.574 668.848 295.605 663.32 295.605 657.328 295.605 652.5 293.477 648.828 289.258 645.172 285.02 643.34 279.688 643.34 273.242V222.09H631.129V305.43H643.34V295.266C648.18 302.715 655.977 306.445 666.699 306.445 674.82 306.445 681.488 303.848 686.688 298.652" fill="#9b9c9e"/>
<path transform="matrix(.1,0,0,-.1,0,120)" d="M794.414 263.762C794.414 273.574 793.23 280.918 790.863 285.781 787.582 292.324 781.816 295.605 773.586 295.605 765.332 295.605 759.586 292.324 756.305 285.781 753.805 280.918 752.574 273.574 752.574 263.762 752.574 253.945 753.805 246.594 756.305 241.738 759.586 235.195 765.332 231.914 773.586 231.914 781.816 231.914 787.582 235.195 790.863 241.738 793.23 246.594 794.414 253.945 794.414 263.762M806.617 222.09H794.414V232.078C788.785 224.746 780.902 221.074 770.785 221.074 762.113 221.074 755.352 223.496 750.512 228.359 743.766 235.137 740.387 246.934 740.387 263.762 740.387 280.586 743.773 292.383 750.543 299.16 755.414 304.004 762.164 306.445 770.875 306.445 781.035 306.445 788.883 302.891 794.414 295.77V342.695H806.617V222.09" fill="#9b9c9e"/>
<path transform="matrix(.1,0,0,-.1,0,120)" d="M851.328 328.469 836.586 315.078V342.695H851.328V328.469" fill="#9b9c9e"/>
<path transform="matrix(.1,0,0,-.1,0,120)" d="M958.547 222.09H883.676V342.695H958.547V331.172H896.555V288.66H949.395V277.141H896.555V233.594H958.547V222.09" fill="#9b9c9e"/>
<path transform="matrix(.1,0,0,-.1,0,120)" d="M1048.66 222.09H1036.46V273.418C1036.46 288.203 1029.63 295.605 1015.96 295.605 1009.53 295.605 1004.47 293.684 1000.81 289.844 997.133 286.016 995.305 280.527 995.305 273.418V222.09H983.102V305.43H995.305V296.277C1001.29 303.066 1009.08 306.445 1018.67 306.445 1027.6 306.445 1034.7 303.848 1040.02 298.652 1045.78 293.008 1048.66 285.273 1048.66 275.449V222.09" fill="#9b9c9e"/>
<path transform="matrix(.1,0,0,-.1,0,120)" d="M1127.76 264.355C1127.76 273.867 1126.57 281.055 1124.21 285.918 1121.04 292.371 1115.33 295.605 1107.1 295.605 1098.84 295.605 1093.1 292.371 1089.81 285.918 1087.46 281.055 1086.26 273.867 1086.26 264.355 1086.26 254.844 1087.46 247.703 1089.81 242.949 1093.1 236.379 1098.84 233.098 1107.1 233.098 1115.33 233.098 1121.04 236.379 1124.21 242.949 1126.57 247.703 1127.76 254.844 1127.76 264.355M1139.97 219.551C1139.97 209.043 1136.84 200.469 1130.64 193.789 1124.43 187.129 1115.95 183.809 1105.23 183.809 1099.14 183.809 1094.02 184.648 1089.9 186.352 1085.79 188.051 1081.46 190.922 1076.94 194.98L1084.9 202.781C1088.3 199.789 1091.17 197.738 1093.54 196.641 1096.59 195.309 1100.39 194.648 1104.89 194.648 1112.56 194.648 1118.38 197.129 1122.34 202.07 1125.95 206.57 1127.76 212.578 1127.76 220.117V233.098C1122.11 225.859 1114.33 222.258 1104.38 222.258 1095.91 222.258 1089.2 224.746 1084.22 229.719 1077.46 236.484 1074.06 248.059 1074.06 264.434 1074.06 280.82 1077.44 292.383 1084.2 299.16 1089.03 304.016 1095.8 306.445 1104.46 306.445 1114.47 306.445 1122.25 302.832 1127.76 295.605V305.43H1139.97V219.551" fill="#9b9c9e"/>
<path transform="matrix(.1,0,0,-.1,0,120)" d="M1182.47 222.09H1170.27V305.43H1182.47V222.09ZM1183.32 329.141H1169.6V342.859H1183.32V329.141" fill="#9b9c9e"/>
<path transform="matrix(.1,0,0,-.1,0,120)" d="M1278.67 222.09H1266.48V273.418C1266.48 288.203 1259.65 295.605 1245.97 295.605 1239.55 295.605 1234.49 293.684 1230.84 289.844 1227.16 286.016 1225.31 280.527 1225.31 273.418V222.09H1213.12V305.43H1225.31V296.277C1231.31 303.066 1239.1 306.445 1248.69 306.445 1257.62 306.445 1264.72 303.848 1270.04 298.652 1275.8 293.008 1278.67 285.273 1278.67 275.449V222.09" fill="#9b9c9e"/>
<path transform="matrix(.1,0,0,-.1,0,120)" d="M1366.92 305.43 1328.98 201.934C1327.4 197.66 1325.43 194.371 1323.06 192.109 1318.98 188.27 1313.57 186.352 1306.79 186.352H1301.54V197.191H1305.27C1309.34 197.191 1312.28 197.93 1314.08 199.391 1315.88 200.859 1317.52 203.574 1318.98 207.52L1324.92 223.777 1294.95 305.43H1308.14L1331.02 238.516 1353.72 305.43H1366.92" fill="#9b9c9e"/>
<path transform="matrix(.1,0,0,-.1,0,120)" d="M1435.69 269.688C1435.36 275.559 1434.51 280.188 1433.14 283.574 1429.65 291.934 1423.16 296.113 1413.67 296.113 1404.19 296.113 1397.7 291.934 1394.2 283.574 1392.83 280.188 1391.99 275.559 1391.67 269.688H1435.69ZM1447.89 260.535H1391.67C1391.67 251.445 1393.77 244.414 1398 239.414 1402.24 234.414 1408.31 231.914 1416.22 231.914 1424.46 231.914 1431.73 235.02 1438.06 241.23L1446.36 233.945C1441.83 229.434 1437.5 226.211 1433.33 224.285 1428.45 222.148 1422.65 221.074 1415.88 221.074 1404.47 221.074 1395.66 224.512 1389.45 231.406 1382.79 238.633 1379.46 249.414 1379.46 263.762 1379.46 277.195 1382.5 287.668 1388.6 295.176 1394.7 302.688 1403.05 306.445 1413.67 306.445 1424.4 306.445 1432.78 302.832 1438.82 295.605 1444.87 288.379 1447.89 278.555 1447.89 266.133V260.535" fill="#9b9c9e"/>
<path transform="matrix(.1,0,0,-.1,0,120)" d="M1529.37 298.652 1520.4 289.504C1516.32 293.574 1511.52 295.605 1506 295.605 1500 295.605 1495.18 293.477 1491.5 289.258 1487.84 285.02 1486 279.688 1486 273.242V222.09H1473.8V305.43H1486V295.266C1490.85 302.715 1498.65 306.445 1509.38 306.445 1517.5 306.445 1524.16 303.848 1529.37 298.652" fill="#9b9c9e"/>
<path transform="matrix(.1,0,0,-.1,0,120)" d="M1557.3 222.09H1545.11V305.43H1557.3V222.09ZM1558.16 329.141H1544.44V342.859H1558.16V329.141" fill="#9b9c9e"/>
<path transform="matrix(.1,0,0,-.1,0,120)" d="M1635.41 251.562V260.527H1612.02C1599.6 260.527 1593.39 255.625 1593.39 245.801 1593.39 236.328 1599.77 231.57 1612.53 231.57 1621.11 231.57 1627.32 233.438 1631.15 237.168 1633.98 239.871 1635.41 244.688 1635.41 251.562M1647.59 222.09H1635.41V230.059C1629.41 224.062 1621.41 221.074 1611.35 221.074 1600.63 221.074 1592.75 223.613 1587.79 228.691 1583.61 232.988 1581.52 238.633 1581.52 245.637 1581.52 253.086 1584.04 258.953 1589.07 263.254 1594.09 267.539 1601.17 269.688 1610.33 269.688H1635.41V277.637C1635.41 289.844 1628.28 295.938 1614.04 295.938 1604.57 295.938 1597.57 292.781 1593.05 286.453L1584.75 294.082C1588.36 298.711 1592.54 301.98 1597.29 303.906 1601.57 305.598 1607.23 306.445 1614.23 306.445 1636.46 306.445 1647.59 297.188 1647.59 278.66V222.09" fill="#9b9c9e"/>
<path transform="matrix(.1,0,0,-.1,0,120)" d="M783.398 13.2617H806.93716V133.8707H783.398Z" fill="#9b9c9e"/>
<path transform="matrix(.1,0,0,-.1,0,120)" d="M906.711 13.2617H884.508V66.6211C884.508 72.1484 882.938 76.332 879.789 79.1484 877.219 81.5195 873.969 82.6992 870.027 82.6992 865.977 82.6992 862.68 81.5195 860.098 79.1484 856.949 76.332 855.383 72.1484 855.383 66.6211V13.2617H833.359V101.512H854.867V93.3789C860.629 99.4805 867.969 102.531 876.898 102.531 885.59 102.531 892.527 99.9297 897.73 94.7305 903.711 88.75 906.711 80.3906 906.711 69.6719V13.2617" fill="#9b9c9e"/>
<path transform="matrix(.1,0,0,-.1,0,120)" d="M971.418 82.1992H955.316V13.2617H933.137V82.1992H923.984V98.9688H933.137V109.98C933.137 116.871 935.168 122.629 939.23 127.262 943.977 132.57 950.52 135.211 958.879 135.211H971.418V116.578H962.867C957.836 116.578 955.316 113.941 955.316 108.629V98.9688H971.418V82.1992" fill="#9b9c9e"/>
<path transform="matrix(.1,0,0,-.1,0,120)" d="M1037.13 57.4688C1037.13 68.3086 1035.46 75.4297 1032.11 78.8086 1029.54 81.4102 1026.13 82.6992 1021.89 82.6992 1017.75 82.6992 1014.41 81.4102 1011.84 78.8086 1008.49 75.4297 1006.82 68.3086 1006.82 57.4688 1006.82 46.5 1008.49 39.3398 1011.84 35.9609 1014.41 33.3594 1017.75 32.0586 1021.89 32.0586 1026.13 32.0586 1029.54 33.3594 1032.11 35.9609 1035.46 39.3398 1037.13 46.5 1037.13 57.4688M1059.33 57.4688C1059.33 49 1058.63 42.2891 1057.3 37.3008 1055.82 31.7812 1053.17 27.0391 1049.33 23.0898 1042.44 15.8594 1033.29 12.25 1021.89 12.25 1010.6 12.25 1001.5 15.8594 994.617 23.0898 990.781 27.0391 988.129 31.7812 986.66 37.3008 985.297 42.2891 984.629 49 984.629 57.4688 984.629 73.2812 988.008 84.75 994.789 91.8594 1001.56 98.9609 1010.6 102.531 1021.89 102.531 1033.29 102.531 1042.38 98.9609 1049.16 91.8594 1055.94 84.75 1059.33 73.2812 1059.33 57.4688" fill="#9b9c9e"/>
<path transform="matrix(.1,0,0,-.1,0,120)" d="M1144.86 94.2305 1128.26 77.4609C1124.75 80.9609 1120.86 82.7109 1116.57 82.7109 1112.83 82.7109 1109.63 81.4102 1106.91 78.8086 1103.86 75.7617 1102.34 71.6406 1102.34 66.4492V13.2617H1080.31V101.52H1101.83V93.0391C1107.13 99.3711 1114.54 102.531 1124.02 102.531 1132.38 102.531 1139.32 99.7695 1144.86 94.2305" fill="#9b9c9e"/>
<path transform="matrix(.1,0,0,-.1,0,120)" d="M1282.06 13.2617H1259.87V66.6211C1259.87 72.1484 1258.31 76.332 1255.18 79.1484 1252.62 81.5195 1249.38 82.6992 1245.48 82.6992 1241.57 82.6992 1238.34 81.5781 1235.76 79.3203 1232.52 76.4883 1230.91 72.4297 1230.91 67.1289V13.2617H1208.72V66.6211C1208.72 72.1484 1207.13 76.332 1203.97 79.1484 1201.38 81.5195 1198.1 82.6992 1194.16 82.6992 1190.09 82.6992 1186.76 81.5195 1184.16 79.1484 1181 76.332 1179.41 72.1484 1179.41 66.6211V13.2617H1157.39V101.512H1178.91V93.3789C1184.77 99.4805 1192.12 102.531 1200.93 102.531 1211.09 102.531 1218.88 98.8086 1224.3 91.3516 1231.42 98.8086 1240.22 102.531 1250.72 102.531 1259.98 102.531 1267.21 99.9297 1272.4 94.7305 1278.83 88.3008 1282.06 79.9414 1282.06 69.6719V13.2617" fill="#9b9c9e"/>
<path transform="matrix(.1,0,0,-.1,0,120)" d="M1350.49 45.7812V50.5312H1333.15C1324.94 50.5312 1320.85 47.2109 1320.85 40.5508 1320.85 33.7617 1325.06 30.3711 1333.48 30.3711 1341 30.3711 1346 32.25 1348.46 35.9609 1349.82 37.9883 1350.49 41.2695 1350.49 45.7812M1347.1 115.57H1332.36L1313.06 144.359H1336.26L1347.1 115.57ZM1372.68 13.2617H1351.17V20.8906C1345.52 15.2305 1338.29 12.4102 1329.47 12.4102 1319.55 12.4102 1312.1 14.9492 1307.13 20.0391 1302.16 25.1211 1299.67 31.7812 1299.67 40.0195 1299.67 47.4805 1302.24 53.6016 1307.36 58.3984 1312.48 63.1992 1319.93 65.6094 1329.73 65.6094H1350.49V70.0117C1350.49 79.2812 1345.03 83.9102 1334.12 83.9102 1327.03 83.9102 1321.41 81.4609 1317.24 76.6094L1303.23 90.3281C1307.41 94.9609 1311.98 98.1719 1316.95 99.9883 1321.47 101.68 1327.5 102.531 1335.08 102.531 1360.14 102.531 1372.68 92.1406 1372.68 71.3711V13.2617" fill="#9b9c9e"/>
<path transform="matrix(.1,0,0,-.1,0,120)" d="M1436.03 13.2617H1424C1415.64 13.2617 1409.16 15.9219 1404.53 21.2188 1400.45 25.8516 1398.42 31.6094 1398.42 38.5V82.2109H1389.12V98.9609H1398.42V125.059H1420.62V98.9609H1436.03V82.2109H1420.62V39.8516C1420.62 34.5391 1423.13 31.8906 1428.14 31.8906H1436.03V13.2617" fill="#9b9c9e"/>
<path transform="matrix(.1,0,0,-.1,0,120)" d="M1477.86 13.2617H1455.66V101.5H1477.86V13.2617ZM1477.86 116.43H1455.66V134.371H1477.86V116.43" fill="#9b9c9e"/>
<path transform="matrix(.1,0,0,-.1,0,120)" d="M1566.62 24.2695C1558.93 16.25 1549.23 12.25 1537.5 12.25 1526.76 12.25 1518.01 15.2891 1511.23 21.3984 1502.42 29.3008 1498.02 41.3203 1498.02 57.4688 1498.02 73.6094 1502.42 85.5898 1511.23 93.3789 1518.01 99.4688 1526.76 102.531 1537.5 102.531 1549.33 102.531 1559.05 98.5703 1566.62 90.6797L1551.77 75.7617C1547.5 80.3906 1542.76 82.7109 1537.59 82.7109 1532.41 82.7109 1528.22 80.7188 1525.02 76.7812 1521.81 72.8086 1520.2 66.3906 1520.2 57.4688 1520.2 48.4414 1521.81 41.9492 1525.02 37.9883 1528.22 34.0391 1532.41 32.0586 1537.59 32.0586 1542.76 32.0586 1547.5 34.3711 1551.77 39L1566.62 24.2695" fill="#9b9c9e"/>
<path transform="matrix(.1,0,0,-.1,0,120)" d="M1628.44 45.7812V50.5312H1611.09C1602.89 50.5312 1598.8 47.2109 1598.8 40.5508 1598.8 33.7617 1603.01 30.3711 1611.43 30.3711 1618.96 30.3711 1623.95 32.25 1626.42 35.9609 1627.77 37.9883 1628.44 41.2695 1628.44 45.7812M1650.63 13.2617H1629.12V20.8906C1623.46 15.2305 1616.25 12.4102 1607.42 12.4102 1597.5 12.4102 1590.05 14.9492 1585.08 20.0391 1580.11 25.1211 1577.62 31.7812 1577.62 40.0195 1577.62 47.4805 1580.19 53.6016 1585.31 58.3984 1590.43 63.1992 1597.87 65.6094 1607.68 65.6094H1628.44V70.0117C1628.44 79.2812 1622.97 83.9102 1612.07 83.9102 1604.98 83.9102 1599.36 81.4609 1595.19 76.6094L1581.17 90.3281C1585.35 94.9609 1589.92 98.1719 1594.9 99.9883 1599.41 101.68 1605.46 102.531 1613.03 102.531 1638.1 102.531 1650.63 92.1406 1650.63 71.3711V13.2617" fill="#9b9c9e"/>
</svg>
